<?xml version="1.0" standalone="no"?>
<!DOCTYPE svg PUBLIC "-//W3C//DTD SVG 1.1//EN" "http://www.w3.org/Graphics/SVG/1.1/DTD/svg11.dtd" >
<svg xmlns="http://www.w3.org/2000/svg">
<metadata></metadata>
<defs>
<font id="SansitaOneRegular" horiz-adv-x="1243" >
<font-face units-per-em="2048" ascent="1638" descent="-410" />
<missing-glyph horiz-adv-x="421" />
<glyph horiz-adv-x="0" />
<glyph horiz-adv-x="2048" />
<glyph unicode="&#xd;" horiz-adv-x="409" />
<glyph unicode=" "  horiz-adv-x="421" />
<glyph unicode="&#x09;" horiz-adv-x="421" />
<glyph unicode="&#xa0;" horiz-adv-x="421" />
<glyph unicode="!" horiz-adv-x="593" d="M-20 121q0 78 58 120t144 42t140.5 -42t54.5 -120t-60.5 -121t-146.5 -43t-138 43t-52 121zM90 506q0 14 4 35l160 823q76 29 166 29t137 -57.5t47 -142.5t-32.5 -180t-72.5 -191.5t-74 -196t-36 -203.5q-47 -53 -129 -53t-126 38t-44 99z" />
<glyph unicode="&#x22;" horiz-adv-x="901" d="M135 944q76 262 80 539l59 8q31 4 54 4q90 0 139 -44t49 -124t-51.5 -205t-112.5 -178h-217zM563 944q76 262 80 539l59 8q31 4 54 4q90 0 139 -44t49 -124t-51.5 -205t-112.5 -178h-217z" />
<glyph unicode="#" horiz-adv-x="1282" d="M37 392q0 54 39 95t110 41h88l45 265h-206q-35 132 26 195q39 40 111 40h108l33 199q23 125 135 125q45 0 105 -25l-47 -299h227l33 199q10 59 45 92t86 33t106 -25l-45 -299h195q10 -47 10 -101.5t-38 -94t-109 -39.5h-95l-41 -265h207q34 -133 -26 -195 q-39 -40 -111 -40h-104l-25 -168q-8 -59 -53 -92t-99.5 -33t-105.5 25l47 268h-217l-25 -168q-8 -59 -53 -92t-99 -33t-106 25l45 268h-184q-12 45 -12 99zM508 528h219l45 265h-225z" />
<glyph unicode="$" horiz-adv-x="1153" d="M-14 202.5q0 104.5 62.5 172t155.5 67.5t154 -26q-41 -70 -41 -159t30 -124t103.5 -35t127 44t53.5 118t-38 119t-95.5 81t-123.5 70q-257 134 -257 377q0 174 140 308.5t357 166.5l11 56q16 90 45.5 121.5t83 31.5t98.5 -10l-39 -192q166 -12 255 -76t89 -163 t-68.5 -156.5t-179.5 -57.5q-68 0 -116 20q36 81 36 126q0 92 -25.5 136.5t-108.5 45t-132 -55t-49 -130t40 -119t98.5 -85t127.5 -81.5q266 -156 266.5 -346.5t-144 -317.5t-361.5 -160l-11 -55q-18 -90 -47.5 -122t-89 -32t-96.5 11l37 192q-164 10 -256 72.5t-92 167z " />
<glyph unicode="%" horiz-adv-x="2121" d="M104 868q0 234 113 373q127 150 358 150q317 0 318 -326q0 -221 -132 -350t-362 -129q-149 0 -222 82t-73 200zM262 18l1233 1301q78 78 188.5 78t141.5 -78l-1231 -1290q-72 -76 -178 -76q-51 0 -92.5 18t-61.5 47zM375 838.5q0 -148.5 55 -148.5q84 0 141 134t58 323 q0 139 -62 139q-80 0 -136 -149.5t-56 -298zM1227 242q0 236 112 372q127 150 357 150q323 0 322 -336q-2 -210 -134 -342q-133 -127 -362 -127q-150 0 -222.5 82t-72.5 201zM1497 213q0 -150 57 -150q43 0 80 38t62 100q55 133 55 319q0 139 -61 139q-76 0 -134.5 -148 t-58.5 -298z" />
<glyph unicode="&#x26;" horiz-adv-x="1501" d="M10 362q0 285 342 365q-57 162 -57 275q0 203 149.5 297t382.5 94q162 0 265.5 -62.5t103.5 -162.5t-70 -157.5t-155.5 -58t-106.5 5.5q8 45 8 119t-24.5 124t-65.5 50q-76 0 -104.5 -66.5t-28.5 -163.5q0 -185 77 -362.5t202 -298.5q33 80 35 198t-74 183q29 27 84 43.5 t104 16.5q109 0 160 -65.5t51 -170.5q0 -186 -133 -340q51 -14 125.5 -14t108.5 27q16 -39 16 -91q0 -102 -66.5 -145t-185.5 -43t-262 76q-182 -76 -392.5 -76t-342.5 102q-145 109 -146 301zM377 446q0 -131 65 -217q66 -80 148 -79.5t127 16.5q-172 161 -295 405 q-45 -45 -45 -125z" />
<glyph unicode="'" horiz-adv-x="473" d="M135 944q76 262 80 539l59 8q31 4 54 4q90 0 139 -44t49 -124t-51.5 -205t-112.5 -178h-217z" />
<glyph unicode="(" horiz-adv-x="673" d="M23 344q0 154 29.5 311.5t82.5 300.5q109 295 283 489t350 193q76 0 104 -41q-428 -297 -544 -995q-37 -227 -37 -487q0 -150 44 -263.5t144 -220.5q-12 -41 -81.5 -41t-138.5 60.5t-122 164t-83.5 239.5t-30.5 290z" />
<glyph unicode=")" horiz-adv-x="667" d="M-219 -369q281 190 428 573.5t147 907.5q0 152 -44 265.5t-142 219.5q4 16 26.5 28.5t45.5 12.5q76 0 145.5 -61t122.5 -164q115 -223 115 -531t-111 -607.5t-285 -492t-350 -192.5q-78 0 -98 41z" />
<glyph unicode="*" horiz-adv-x="995" d="M119 993q0 78 41 137.5t110.5 59.5t126.5 -31l113 -61q32 243 20 305q49 33 105 33q102 0 102 -105q0 -98 -69 -254q242 96 299 146q43 -43 43 -103q0 -106 -125 -153q-78 -33 -221 -52q47 -78 95 -137t75 -76q-62 -114 -164 -114q-113 0 -168 243l-129 -167 q-51 -72 -68 -109q-49 0 -87 31.5t-38 90t86 142.5q59 66 140 127q-68 16 -139.5 31.5t-147.5 15.5z" />
<glyph unicode="+" horiz-adv-x="968" d="M12 464q0 50 42 92t108 42h190l41 219q14 63 58.5 100t99.5 37t92 -14l-65 -342h305l6 -33q4 -14 4 -28q0 -70 -47 -109t-125 -39h-184l-50 -252q-27 -125 -157 -125q-47 0 -90 15l73 362h-293q-8 25 -8 75z" />
<glyph unicode="," horiz-adv-x="503" d="M-145 -264q158 170 157 383q0 66 -22 127q25 16 74 27.5t86 11.5q90 0 143 -48.5t53 -132.5q0 -160 -120 -270.5t-283 -109.5q-33 0 -88 12z" />
<glyph unicode="-" horiz-adv-x="802" d="M45 469q0 49 24.5 89t73.5 46h404q68 0 88 41q61 -33 61 -137q0 -41 -31.5 -81t-78.5 -44h-375q-43 0 -63.5 -13t-36.5 -38q-66 47 -66 137z" />
<glyph unicode="." horiz-adv-x="526" d="M-27 121q0 78 60.5 121t146.5 43t138.5 -43t52.5 -121t-58.5 -120t-144.5 -42t-140.5 42t-54.5 120z" />
<glyph unicode="/" horiz-adv-x="749" d="M-115 -305q0 37 19 90l669 1849q37 6 110 6t117 -19t44 -74.5t-33 -149.5l-651 -1798q-16 -8 -113 -9q-162 1 -162 105z" />
<glyph unicode="0" horiz-adv-x="1236" d="M68 487q0 414 194 660q195 246 529 246q178 0 280.5 -133.5t102.5 -355.5q0 -430 -189.5 -688.5t-503.5 -258.5q-211 0 -312 130t-101 400zM430 348q0 -207 68 -207q61 0 117.5 72t101.5 193q96 264 96 591q0 111 -17.5 161t-63.5 50t-100 -79.5t-100 -204.5 q-102 -285 -102 -576z" />
<glyph unicode="1" horiz-adv-x="1069" d="M12 43q0 82 46 131t118 49h111l172 774q-63 -63 -195 -63q-66 0 -117 59t-59 142q303 53 756 256l65 -78l-198 -1090h51q123 0 186 23q27 -45 27 -119t-54.5 -118t-144.5 -44q-182 0 -362 8l-131 4q-178 6 -263 -6q-8 33 -8 72z" />
<glyph unicode="2" horiz-adv-x="1148" d="M18 303l256 197l160 131q82 70 141 131q109 109 109 213q0 61 -40 94t-98 33q-99 0 -179 -49q-78 -51 -115 -129q-51 2 -85 45t-34 105q0 129 148 224q152 94 359.5 94.5t324 -90t116.5 -243.5q0 -115 -56 -219.5t-206 -210.5l-221 -156l-133 -88l-170 -104l72 -9 q49 -6 135 -6q164 0 295 37t174 88q23 -16 40 -58t17 -93q0 -154 -116.5 -217.5t-356.5 -63.5q-125 0 -291 36t-233 56z" />
<glyph unicode="3" horiz-adv-x="1089" d="M-16 194.5q0 106.5 79 172.5q79 -146 280 -146q93 0 152.5 49t59.5 146q0 182 -250 182l35 184q299 49 299 197q0 59 -41 92t-119 33q-137 0 -258 -127q-39 10 -55 37.5t-16 85t40.5 112t112.5 95.5q154 86 336.5 86t284.5 -83t102 -202t-90 -217q-91 -99 -238 -152 q270 -70 271 -333q0 -190 -167 -318.5t-450 -128.5q-168 0 -268 64.5t-100 171z" />
<glyph unicode="4" horiz-adv-x="1148" d="M-14 279v258l766 858v-2l2 2l284 -31q-96 -393 -178 -846h47q117 1 154 21q23 -43 22.5 -127t-63 -142.5t-199.5 -58.5h-12l-33 -211q-55 -41 -167.5 -41t-153.5 78q-22 40 -13 115l15 77zM205 532l309 -10q68 301 135 529z" />
<glyph unicode="5" horiz-adv-x="1062" d="M-12 191.5q0 113.5 71 175.5q86 -145 269 -146q111 0 172 51.5t61 149.5q0 197 -285 196q-109 0 -178 -8l193 742h481q162 0 213 71q53 -47 53 -148t-77 -171q-78 -70 -189 -70h-350l-57 -192q119 10 192.5 10t151 -26.5t135.5 -71.5q127 -100 127 -228 q0 -248 -171 -407.5t-429 -159.5q-186 0 -284.5 59.5t-98.5 173z" />
<glyph unicode="6" horiz-adv-x="1173" d="M51 461q0 162 55.5 327.5t155.5 301t237.5 221.5t293 86t243.5 -49.5t88.5 -143.5t-73.5 -151q-61 80 -207 80q-324 0 -402 -392q109 181 294 181q174 0 261 -127q74 -106 74 -258t-54 -258.5t-138 -178t-187.5 -107.5t-201.5 -36q-201 0 -314 127q-125 135 -125 377z M406 370q0 -81 35.5 -133.5t92.5 -52.5q97 0 144 135q33 98 33 188.5t-32 141.5t-75 51t-76.5 -24.5t-61.5 -67.5t-44 -100t-16 -138z" />
<glyph unicode="7" horiz-adv-x="1028" d="M96 1212q0 59 17.5 104.5t62.5 100.5q20 -41 299 -61q74 -4 139 -4h455l45 -172l-94 -148l-92 -158l-125 -231q-146 -278 -168 -405q-12 -51 -12 -95.5t22 -66.5q-41 -74 -162 -107q-39 -10 -86 -10q-96 0 -151 63.5t-55.5 134t20 121t49.5 97.5l514 708 q-186 -78 -348 -77.5t-246 55.5t-84 151z" />
<glyph unicode="8" horiz-adv-x="1159" d="M4 285q0 236 307 385q-135 111 -135 254q0 197 163 332.5t404 136.5q164 0 265 -78q100 -78 100 -195q0 -178 -180 -301q-51 -35 -107 -59q133 -111 166 -158q55 -76 55 -168t-46 -182t-128 -154q-172 -139 -424 -139q-201 0 -321 90q-119 91 -119 236zM330 342 q0 -72 33.5 -121t97 -49t112 47t48.5 114.5t-43 102.5l-144 121q-104 -80 -104 -215zM526 1069q0 -80 47 -119l121 -90q113 53 113 178q0 66 -35 109t-98.5 43t-105.5 -37t-42 -84z" />
<glyph unicode="9" horiz-adv-x="1171" d="M49 151.5q0 94.5 74 151.5q61 -80 207 -80q190 0 297 133q72 92 104 258q-108 -180 -293 -180q-175 0 -262 127q-74 106 -74 258q0 277 193 436q168 143 377 143.5t329.5 -130.5t120.5 -373q0 -162 -55 -328t-155.5 -301t-237.5 -221t-293 -86t-244 49t-88 143.5z M463 813q0 -55 31.5 -106.5t74.5 -51.5q77 0 140 93q59 94 59 206.5t-36 164.5t-93 52t-91 -39.5t-52.5 -95t-25.5 -112t-7 -111.5z" />
<glyph unicode=":" horiz-adv-x="614" d="M-2 121q0 78 60.5 121t146.5 43t138 -43t52 -121t-58 -120t-144 -42t-140.5 42t-54.5 120zM166 922q0 78 60.5 120.5t146.5 42.5t138 -43t52 -120q0 -78 -58.5 -120t-144.5 -42t-140 42t-54 120z" />
<glyph unicode=";" horiz-adv-x="600" d="M-106 -264q158 170 157 383q0 66 -22 127q25 16 74 27.5t85 11.5q90 0 143.5 -48.5t53.5 -132.5q0 -158 -120 -269.5t-283 -110.5q-33 0 -88 12zM150 922q0 78 60 120.5t146 42.5t138.5 -43t52.5 -120q0 -78 -58.5 -120t-144.5 -42t-140 42t-54 120z" />
<glyph unicode="&#x3c;" horiz-adv-x="702" d="M20 471l406 418q66 66 147 65q31 0 61 -18t42 -53l-76 -74l-301 -311l190 -256q25 -31 25 -65q0 -70 -43 -111q-45 -51 -129 -56z" />
<glyph unicode="=" horiz-adv-x="1132" d="M94 238q0 66 42 107.5t108 41.5h712q10 -35 10.5 -78.5t-40.5 -86t-127 -42.5h-697q-8 27 -8 58zM94 598q0 66 42 106.5t108 40.5h712q10 -35 10.5 -78.5t-40.5 -84.5t-127 -41h-697q-8 26 -8 57z" />
<glyph unicode="&#x3e;" horiz-adv-x="700" d="M-41 84l135 133l242 252l-135 182q-31 39 -55.5 72t-24.5 65q0 72 43 113q47 51 129 55l321 -460l-405 -418q-66 -66 -148 -66q-31 0 -60.5 18.5t-41.5 53.5z" />
<glyph unicode="?" horiz-adv-x="1073" d="M86 121q0 78 60.5 121t146.5 43t138 -43t52 -121t-58 -120t-144 -42t-140.5 42t-54.5 120zM143 1106q0 133 131 205q141 82 385 82t340.5 -68t96.5 -182q0 -174 -174 -309q-51 -41 -115 -82l-391 -254q-80 -53 -80 -131q-59 0 -98 51t-39 123q0 164 155 260l232 143 q96 57 147 158q16 33 17 74q0 94 -95 94q-74 0 -122 -56.5t-49.5 -126t16.5 -106.5q-45 -12 -135.5 -12t-156 36.5t-65.5 100.5z" />
<glyph unicode="@" horiz-adv-x="1630" d="M31 315q0 193 75.5 360t202.5 291t292 194.5t321 70.5q296 0 462 -141q178 -145 178.5 -397.5t-126.5 -404.5t-312 -153q-92 0 -141 31t-63 110q-33 -82 -91.5 -111.5t-140.5 -29.5q-262 0 -262 309q0 195 116 334t292 140q68 0 133 -27l221 27l-94 -553q-2 -10 -2 -21 v-18q0 -78 53 -78q82 0 143 118t62 257q0 240 -115 351t-354 111q-123 0 -236 -53t-199 -148.5t-137 -226.5t-51 -284q0 -223 131 -318.5t379 -95.5q100 0 194.5 32t145.5 68q10 -6 19.5 -25.5t9.5 -33.5q0 -78 -76 -121q-143 -80 -323 -80q-344 0 -525.5 134t-181.5 382z M676 324q0 -39 16.5 -59.5t32.5 -20.5q41 0 71.5 41t43.5 106l80 430q-25 20 -62 21q-75 1 -128.5 -152.5t-53.5 -365.5z" />
<glyph unicode="A" d="M-115 0l645 1352h441l86 -996q20 -215 102 -278q-59 -119 -225 -119q-262 0 -287 373h-352q-41 -94 -70 -176l-53 -156h-287zM358 481h283l-25 527v55l-145 -322z" />
<glyph unicode="B" horiz-adv-x="1304" d="M14 10l258 1342q242 20 398 20q305 0 424 -61q135 -66 135 -246q0 -104 -87 -188.5t-179 -102.5q98 -16 169.5 -92t71.5 -197q0 -233 -174 -369t-516 -136h-15q-229 0 -485 30zM469 129q18 -2 23 -2h18q168 0 240 111q53 86 53 243q0 84 -54.5 129t-177.5 49zM598 799h20 q265 6 265 264q0 170 -164 170h-19q-8 0 -20 -2z" />
<glyph unicode="C" horiz-adv-x="1292" d="M59 475q0 342 179 602q135 193 376 275q125 41 248 41q218 0 337.5 -69t119.5 -178q0 -110 -94 -184q-93 -74 -167 -74h-1q-74 0 -105 11q9 82 9 144q0 81 -15 128q-20 76 -82.5 76t-125 -58.5t-115.5 -156.5q-121 -223 -121 -487q0 -127 71.5 -200t206 -73t242.5 76 q47 33 82 76q53 -39 53 -122q0 -153 -145.5 -247t-406.5 -94t-403.5 136t-142.5 378z" />
<glyph unicode="D" horiz-adv-x="1433" d="M16 14l230 1211q16 82 26 129q298 22 438 22h12q318 -1 480 -123t162 -403q0 -872 -946 -873q-152 0 -402 37zM471 129q8 -4 16 -4h17q76 0 154.5 47t140.5 143q143 224 143 611q0 305 -219 305h-21q-10 0 -20 -2z" />
<glyph unicode="E" horiz-adv-x="1101" d="M16 0l252 1352h883q0 -125 -60.5 -190.5t-179 -65.5t-239.5 55l-64 -358h365q0 -109 -53.5 -169.5t-142.5 -60.5t-144 20.5t-62 26.5l-73 -387q49 -6 141 -6q157 0 270 98q39 -49 39 -129q0 -111 -82 -169t-211 -58q-74 0 -240.5 25.5t-234 25.5t-94.5 -3t-70 -7z" />
<glyph unicode="F" horiz-adv-x="1099" d="M12 0l260 1352h914q0 -125 -58.5 -196t-160.5 -71q-166 0 -287 56l-66 -332h396q0 -109 -54.5 -177.5t-156.5 -68.5t-201 39q-20 8 -23 10l-116 -612h-447z" />
<glyph unicode="G" horiz-adv-x="1343" d="M63 483q0 410 222.5 660t621.5 250q276 0 375 -144q31 -45 31 -99q0 -99 -84 -183q-88 -82 -197 -82q-43 0 -84 14q8 61 8 133q0 114 -24.5 166.5t-82.5 52.5t-122.5 -62.5t-116.5 -164.5q-112 -227 -112 -501q0 -132 51 -226t145 -94q56 0 105 45l65 411l414 37 q-147 -324 -148 -698q-55 -39 -136 -39t-132 38t-61 77q-51 -53 -134 -84t-171 -31q-189 0 -301 121q-131 139 -132 403z" />
<glyph unicode="H" horiz-adv-x="1447" d="M12 0l260 1352h433l-119 -604h303l112 604h433q-29 -152 -66 -322l-70 -334q-77 -384 -77 -555q0 -74 22 -112q-102 -70 -222 -70t-171 57.5t-51 137.5q0 143 57 430h-303l-113 -584h-428z" />
<glyph unicode="I" horiz-adv-x="733" d="M12 0l260 1352h451l-264 -1352h-447z" />
<glyph unicode="J" horiz-adv-x="729" d="M-223 -283q104 12 171 148.5t128 451.5l198 1035h445l-199 -1035q-76 -401 -201 -559q-118 -147 -321 -147q-90 0 -148.5 32.5t-72.5 73.5z" />
<glyph unicode="K" horiz-adv-x="1423" d="M16 0l234 1245l22 107h439l-258 -1352h-437zM618 643q225 412 378 578q152 165 307 165h2q84 0 144 -45t75 -116q-70 -29 -103 -51q-82 -61 -192 -199l-187 -223q-45 -53 -63 -78q31 -172 121 -338t184 -215q-55 -162 -268 -162q-158 0 -266 188q-111 188 -132 496z" />
<glyph unicode="L" horiz-adv-x="1032" d="M18 0l248 1352h449l-205 -1127q27 -4 51 -4h51q173 0 279 94q39 -49 39 -144t-73 -153.5t-200 -58.5q-74 0 -243.5 25.5t-234 25.5t-91.5 -3t-70 -7z" />
<glyph unicode="M" horiz-adv-x="1802" d="M-27 0l371 1352h428l94 -772l381 772h359l36 -1012q8 -201 107 -262q-23 -41 -88.5 -80t-152.5 -39q-154 0 -211.5 82t-57.5 223v633l-403 -897h-254l-144 920l-229 -920h-236z" />
<glyph unicode="N" horiz-adv-x="1439" d="M20 0l246 1352h441l319 -930l170 930l227 -2l-249 -1350h-469l-295 895l-164 -895h-226z" />
<glyph unicode="O" horiz-adv-x="1454" d="M66 500q0 387 200 630q213 264 584 265q268 0 403.5 -130t135.5 -405q0 -418 -212 -659.5t-567 -241.5q-276 0 -410 138.5t-134 402.5zM512 264q0 -70 23.5 -115t86 -45t101.5 30t79 119t86 323.5t50 332t4 171t-22.5 120.5t-83 47t-101.5 -37q-76 -69 -131 -286 q-92 -369 -92 -660z" />
<glyph unicode="P" horiz-adv-x="1312" d="M14 0l252 1341q274 25 570 25q501 0 501 -353q0 -196 -124 -313q-123 -116 -335 -116h-4q-100 0 -178 57q-37 25 -61 57q150 0 228.5 91.5t78.5 269.5t-176 178h-49q-12 0 -23 -2l-235 -1235h-445z" />
<glyph unicode="Q" horiz-adv-x="1439" d="M72 574.5q0 187.5 57 335t157.5 255t239 169t301.5 61.5q549 0 549 -535q0 -385 -184 -621.5t-504 -265.5q188 -41 358.5 -41t280.5 64q31 18 43 39q62 -55 62 -166q0 -109 -98 -173q-97 -63 -286.5 -63t-408.5 88.5t-408 251.5l45 150q72 -39 178 -39q216 0 349 248 q131 252 131 657q0 258 -117 258q-61 0 -120.5 -67.5t-106.5 -175.5q-102 -248 -103 -539q0 -59 29 -95t80 -36q-8 -63 -63.5 -108.5t-124.5 -45.5q-166 0 -251 103.5t-85 291z" />
<glyph unicode="R" horiz-adv-x="1394" d="M16 0l250 1346q199 23 486 23q6 -1 13 -1q296 0 433 -86t137 -259t-89 -281.5t-242 -143.5q35 -170 111.5 -303t162.5 -174q-58 -162 -245 -162q-169 0 -284.5 205t-127.5 534h14q152 4 227.5 83t75.5 245q0 207 -174 215h-45q-18 0 -29 -2l-235 -1239h-439z" />
<glyph unicode="S" horiz-adv-x="1208" d="M4 201q0 245 249 247h4q60 0 130 -26q-33 -84 -33 -160q0 -164 117 -164q76 0 138.5 55.5t62.5 118t-40 107.5t-99.5 81t-128.5 70q-267 135 -267 377q0 117 57.5 208t149.5 153q184 125 410.5 125t336 -68t109.5 -175t-73 -165.5t-154.5 -58.5t-138.5 20q31 62 31 135 q0 35 -7 73q-20 109 -113 110q-75 0 -139 -56q-63 -56 -63 -144q0 -60 40 -104.5t101 -85t131 -81.5t131 -91q141 -113 141 -264q0 -102 -54 -189t-144 -151q-197 -139 -457 -139q-211 0 -319.5 68.5t-108.5 173.5z" />
<glyph unicode="T" horiz-adv-x="1060" d="M129 1164q0 114 75 173.5t180.5 59.5t299.5 -29l139 -20q71 -8 143 -8q1 0 2 -1q71 0 119 31q74 -66 74 -160t-85 -163.5t-195 -69.5q-53 0 -140 14q-100 -315 -100 -534t111 -334q-51 -92 -127 -128t-189.5 -36t-184.5 62.5t-71 202t82 384t205 430.5q-59 6 -121 6 q-127 0 -147 -47q-70 53 -70 167z" />
<glyph unicode="U" horiz-adv-x="1370" d="M74 303q0 80 20 182l166 867h453l-164 -873q-18 -93 -18 -157q0 -82 29 -117q30 -37 85 -37q100 0 154 63q55 70 90 248l166 873h309l-164 -871q-57 -291 -213 -406.5t-459 -115.5q-227 0 -340.5 92t-113.5 252z" />
<glyph unicode="V" horiz-adv-x="1253" d="M86 1270q59 123 224 123t242 -95.5t77 -314.5v-731l497 1098h244l-637 -1350h-479l-61 983q-6 109 -36 182.5t-71 104.5z" />
<glyph unicode="W" horiz-adv-x="2027" d="M86 1270q29 57 91.5 89t148.5 32q135 0 216 -97.5t81 -310.5v-731l469 1098h241l56 -1037l-7 -59l488 1096h280l-655 -1350h-436l-41 623l-270 -623h-494l-61 983q-6 111 -36 183.5t-71 103.5z" />
<glyph unicode="X" horiz-adv-x="1239" d="M-76 0l471 653l-147 412q-33 90 -66 136t-84 75q96 113 256 113q127 0 195 -50.5t113 -175.5l86 -243l309 430h276l-502 -666l130 -365q29 -82 79 -142t95 -71q-77 -147 -287 -147q-103 0 -175.5 67.5t-127.5 219.5l-60 164l-309 -410h-252z" />
<glyph unicode="Y" horiz-adv-x="1220" d="M80 1276q92 113 266 113q172 0 251 -122t79 -411v-147q123 360 247 518q123 157 277 157h2q61 0 102.5 -31.5t61.5 -78.5q-158 -70 -309 -270q-152 -201 -250 -482l-121 -522h-457l119 602q-59 555 -268 674z" />
<glyph unicode="Z" horiz-adv-x="1181" d="M12 227q0 111 127 219l639 525q-264 43 -370.5 43t-204.5 -47q-56 91 -56 196q0 103 77 156t206 53q57 0 118.5 -8t123.5 -16l121 -19q59 -8 136 -8t163 20q82 -72 82 -202.5t-99 -208.5l-696 -557q150 -41 397 -41q123 0 201 61q35 -45 44 -83t9 -92q0 -111 -77 -177 t-226 -66t-259 19.5t-167 28t-117.5 8.5t-91.5 -31q-47 35 -72 145q-8 31 -8 82z" />
<glyph unicode="[" horiz-adv-x="690" d="M-80 -410l385 2048h580q-25 -135 -197 -135h-102l-332 -1775h61q92 0 132 -25t40 -82q0 -23 -2 -31h-565z" />
<glyph unicode="\" horiz-adv-x="643" d="M109 -401l94 1802q12 152 44 187.5t75 46t110.5 10.5t79.5 -7l-94 -1853q-10 -107 -52 -151t-145.5 -44t-111.5 9z" />
<glyph unicode="]" horiz-adv-x="686" d="M-211 -410q12 70 57 103t131 33h103l332 1775h-82q-88 0 -122 24.5t-34 86.5q0 18 2 26h569l-385 -2048h-571z" />
<glyph unicode="^" horiz-adv-x="1044" d="M-119 655q135 57 255 236.5t212 460.5h338q4 -260 69.5 -447.5t182.5 -263.5q-37 -43 -160 -66q-35 -6 -84 -6q-110 0 -168.5 105.5t-95.5 423.5q-98 -285 -194 -408t-226 -123q-51 0 -85 23.5t-44 64.5z" />
<glyph unicode="_" horiz-adv-x="1404" d="M37 -231q0 68 43 109.5t108 41.5h863q10 -35 10 -61q0 -61 -42 -104.5t-128 -43.5h-846q-8 27 -8 58z" />
<glyph unicode="`" horiz-adv-x="634" d="M-94 1364q0 109 74 137l483 -299l-43 -98l-252 47q-172 31 -238 129q-25 37 -24 84z" />
<glyph unicode="a" horiz-adv-x="1286" d="M33 420q0 137 47 262t133 215q176 188 467 188q104 0 180 -34l350 34l-151 -798q-6 -25 -6 -70t27.5 -73.5t68.5 -32.5q-20 -70 -95 -111t-159 -41t-140.5 32t-72.5 85q-33 -51 -102.5 -84t-162.5 -33t-169 24.5t-124 78t-69.5 137.5t-21.5 221zM424 278.5 q0 -118.5 18.5 -153.5t51.5 -35q66 0 113.5 62.5t66.5 173.5l108 600q-43 37 -93 37t-79.5 -16.5t-53.5 -53.5t-44 -99.5t-54 -229.5t-34 -285.5z" />
<glyph unicode="b" horiz-adv-x="1257" d="M8 98l254 1336l416 41l-64 -314q-23 -96 -51 -164q45 57 144 80q29 8 63 8q190 0 294.5 -115.5t104.5 -338.5q0 -291 -165 -473q-178 -199 -502 -199q-223 0 -391 74q-60 26 -103 65zM420 117q43 -37 96 -37t84 20.5t53 61.5q61 111 111 448q14 96 14 192.5t-21.5 127.5 t-62.5 31q-125 0 -166 -244z" />
<glyph unicode="c" horiz-adv-x="1060" d="M35 399q0 322 179 504t502.5 182t323.5 -233q0 -86 -71.5 -139.5t-188.5 -53.5q-49 0 -78 15q37 85 37 205q0 86 -59 86q-41 0 -87 -51.5t-85 -131.5q-86 -184 -86 -370q0 -102 39 -148.5t125 -46.5q119 0 213 98q27 31 41 66q78 -41 78 -155t-129 -190.5t-338 -76.5 q-416 0 -416 440z" />
<glyph unicode="d" horiz-adv-x="1280" d="M33 403q0 307 180 494.5t467 187.5q74 0 131 -16q2 8 6 31l10 63q8 41 21 109l33 162l407 41l-227 -1188q-2 -12 -2 -33v-33q0 -45 22.5 -78.5t59.5 -33.5q-41 -96 -166 -138q-43 -12 -103.5 -12t-116 32t-71.5 85q-73 -117 -259 -117q-208 0 -302 102q-90 104 -90 342z M424 211q0 -125 74 -125q66 0 111.5 65.5t64.5 174.5l110 600q-43 37 -118.5 37t-116.5 -82t-83 -285t-42 -385z" />
<glyph unicode="e" horiz-adv-x="1089" d="M31 385q0 309 174 505q173 195 484 195h3q195 0 291 -81q72 -61 72 -162q0 -360 -623 -361q-8 -53 -8 -98q0 -94 42 -130t120 -36t160.5 36t117.5 93q51 -35 51 -112q0 -136 -141 -207q-131 -68 -272.5 -68t-224 30.5t-138.5 88.5q-109 109 -108 307zM446 569 q145 0 229.5 88t84.5 226q0 98 -70 98q-35 0 -64.5 -13.5t-60.5 -58.5q-76 -102 -119 -340z" />
<glyph unicode="f" horiz-adv-x="782" d="M33 -41l196 993h-145l18 92h144l43 162q66 267 501 268h8q187 0 271 -48q86 -50 86 -115.5t-51 -106.5t-109 -41q-112 0 -161 25q29 49 28 102q0 94 -57 94q-88 0 -125 -180l-31 -160h187l-13 -92h-192l-185 -952z" />
<glyph unicode="g" horiz-adv-x="1226" d="M-70 -162q0 84 63.5 132t156 48t157.5 -38q39 -20 58 -50q-47 -41 -48 -108q0 -88 82 -88q137 0 215 323q23 88 41 176q-91 -112 -297 -112h-4q-145 0 -229 69.5t-84 233.5q0 102 35 218t104.5 214t175 163.5t234.5 65.5t190 -41l402 41l-140 -786q-72 -401 -220 -555 t-431 -154q-215 0 -338 68t-123 180zM446 418q0 -139 72 -139q49 0 91 48t57 111l104 527q-10 2 -25 8t-43 6q-125 0 -198 -205q-58 -159 -58 -356z" />
<glyph unicode="h" horiz-adv-x="1288" d="M-16 -41l288 1475l412 41l-16 -82q-57 -315 -107 -422q115 115 330 115h2q217 0 258 -148q14 -47 14 -88q0 -71 -16 -162l-74 -379q-10 -47 -10 -82q0 -90 92 -116q-23 -76 -103.5 -114t-161.5 -38q-138 0 -187 78q-37 53 -37 132.5t32 244.5l29 155q35 178 35 244 q0 115 -64 115q-80 0 -131 -117q-20 -45 -34 -113l-140 -698z" />
<glyph unicode="i" horiz-adv-x="665" d="M35 158q0 166 76 489l75 397l416 41l-125 -647q-35 -152 -35 -205q0 -116 84 -120q-63 -154 -266 -154q-104 0 -164.5 67.5t-60.5 131.5zM223 1329q0 80 66.5 123t163.5 43q96 0 154.5 -43t58.5 -123t-64.5 -121t-161.5 -41q-96 0 -156.5 41t-60.5 121z" />
<glyph unicode="j" horiz-adv-x="649" d="M-250 -244q194 15 283 432l166 856l411 41l-174 -897q-68 -342 -172 -454q-93 -103 -273 -103t-241 125zM231 1329q0 80 67 123t163 43t154.5 -43t58.5 -123t-64.5 -121t-160.5 -41t-157 41t-61 121z" />
<glyph unicode="k" horiz-adv-x="1236" d="M-16 -41l286 1475l412 41l-47 -244q-31 -172 -72 -260q110 114 340 114h4q129 0 200 -68.5t71 -194.5t-71 -215t-202 -126q10 -41 25 -84l28 -82q39 -104 70 -141t72 -49q-23 -84 -97 -125t-163 -41q-264 0 -299 408q-6 57 -6 114q102 29 174 125q72 95 72 207 q0 115 -81 115q-57 0 -102 -63.5t-66 -172.5l-135 -692z" />
<glyph unicode="l" horiz-adv-x="663" d="M37 158q0 154 72 489l149 787l416 41l-199 -1037q-35 -152 -35 -205q0 -116 84 -120q-63 -154 -266 -154q-102 0 -161.5 65.5t-59.5 133.5z" />
<glyph unicode="m" horiz-adv-x="1886" d="M-16 -41l215 1085l333 41l-34 -206q53 111 151.5 158.5t251.5 47.5q88 0 145.5 -43t75.5 -112q35 72 124 113.5t198.5 41.5t164 -23.5t87.5 -62.5q55 -72 55 -201.5t-42 -329.5t-42 -248t27.5 -76.5t68.5 -32.5q-20 -70 -91 -111t-163 -41q-247 0 -247 191q0 86 36 248 q77 357 76 425q0 104 -78 105q-51 0 -100 -71t-72 -212l-127 -645l-399 -41l111 557q51 261 51 318q0 94 -70 94q-47 0 -98 -70t-80 -213l-125 -645z" />
<glyph unicode="n" horiz-adv-x="1284" d="M-16 -41l213 1088l335 38l-32 -200q96 200 388 200h3q143 0 203.5 -60t60.5 -191.5t-48 -346t-48 -265t27.5 -79t68.5 -32.5q-20 -70 -91 -111t-163 -41q-248 0 -248 193q2 53 19 143l37 188q55 266 55 326q0 119 -70 119q-117 0 -178 -305l-121 -623z" />
<glyph unicode="o" horiz-adv-x="1210" d="M202 885q170 200 473 200h3q221 0 333.5 -102t112.5 -317q0 -328 -174 -517.5t-469 -189.5q-450 0 -450 422q0 303 171 504zM422 205q0 -123 82 -123q47 0 76.5 22.5t61.5 96t64.5 249t35.5 251t3 132t-16 93.5t-62 37t-77 -29t-55.5 -84t-44 -138t-44 -214t-24.5 -293z " />
<glyph unicode="p" horiz-adv-x="1257" d="M-86 -410l283 1454l333 35l-26 -141q86 145 275.5 145t289.5 -123t100 -301t-47 -305t-133 -214t-203.5 -134t-234.5 -47t-158 21l-63 -349zM418 115q43 -37 96 -37t84 20.5t53 61.5q61 111 111 446q14 98 14 194.5t-21.5 127t-62.5 30.5q-125 0 -166 -243z" />
<glyph unicode="q" horiz-adv-x="1263" d="M33 403q0 303 178 492.5t469 189.5q104 0 180 -34l363 34l-279 -1454l-414 -41l86 416q-68 -47 -175 -47q-220 0 -314 102t-94 342zM424 219q0 -133 72 -133q63 0 110 64.5t68 175.5l108 600q-43 37 -93 37t-79.5 -16.5t-52.5 -53.5q-59 -96 -96 -318.5t-37 -355.5z" />
<glyph unicode="r" horiz-adv-x="1067" d="M-14 -41l209 1085l337 41l-36 -206q100 206 323 206h2q119 0 183.5 -61t64.5 -187t-83 -206t-224 -80h-5q-57 0 -81 24q74 131 74 265q0 88 -64 88q-49 0 -101 -84t-69 -193l-106 -651z" />
<glyph unicode="s" horiz-adv-x="995" d="M-33 178q1 79 59 125q58 47 144 47t139 -33q-27 -68 -26 -112q0 -135 114 -135q49 0 82 30.5t33 83.5q0 104 -176 215q-143 94 -176 131q-56 66 -56 148v2q0 82 39 158q39 78 111 133q149 114 406 114h4q133 0 211.5 -53t78.5 -143t-54 -141.5t-137 -51.5t-116 23 q29 76 29 141q0 121 -98 121q-51 0 -93.5 -46t-42.5 -95.5t40 -88t161 -112.5t167 -134.5t46 -143t-40 -158.5t-111 -129q-154 -115 -400 -115q-133 0 -235 69q-103 69 -103 150z" />
<glyph unicode="t" horiz-adv-x="739" d="M68 205q0 55 28 194l109 553h-121l8 62q246 74 483 254h99l-49 -224h159l-18 -92h-158l-104 -553q-27 -127 -27 -170q0 -98 86 -118q-20 -70 -94 -111t-178 -41t-163.5 65.5t-59.5 180.5z" />
<glyph unicode="u" horiz-adv-x="1300" d="M39 223q0 61 6 92l137 729l416 41l-149 -790q-8 -45 -9 -72q0 -119 72 -119q80 0 137 109q18 35 27 80l145 751l404 41l-152 -798q-6 -31 -6 -64t18.5 -68.5t77.5 -43.5q-12 -49 -55 -82q-90 -70 -187.5 -70t-155 35t-73.5 92q-98 -127 -342 -127q-127 0 -219 77t-92 187 z" />
<glyph unicode="v" horiz-adv-x="1165" d="M41 1010q47 41 93 58t141.5 17t163 -74.5t80.5 -206.5t13 -292t-12 -352q63 45 143 208.5t113 393.5q10 70 10 143.5t-8 104.5q67 75 182 75h3q72 0 127 -38.5t55 -111.5q0 -125 -75 -294.5t-171 -298.5q-135 -186 -265 -284.5t-258.5 -98.5t-197.5 27 q-12 430 -27.5 583.5t-27.5 237.5q-20 164 -82 203z" />
<glyph unicode="w" horiz-adv-x="1822" d="M43 1020q87 65 207 65h4q238 0 270 -294q8 -70 8 -162.5t-24 -476.5q49 23 101.5 103.5t95.5 190.5q96 256 96 478q0 35 -9.5 71.5t-19.5 46.5q72 43 181.5 43t161.5 -74.5t67.5 -230t15.5 -280.5t-14 -340q102 74 186 315q84 242 84 414q0 76 -12 121q67 75 181 75h3 q72 0 124 -38.5t52 -111.5q0 -130 -73 -299t-166 -294q-136 -186 -266 -284.5t-264 -98.5t-181 27v450q-117 -311 -326 -432q-76 -45 -147 -45q-137 0 -197 27q-14 469 -26.5 599t-22.5 210q-20 160 -90 225z" />
<glyph unicode="x" horiz-adv-x="1134" d="M-37 140q0 89 62.5 176t155.5 136.5t159 77.5l-129 297q-35 76 -100 76l-17 -2h-6q12 72 96 128t181 56q156 0 227 -155l16 -33l88 -217q55 25 79 71t24 137t-49 148q78 49 180 49q184 0 184 -178q0 -195 -244 -307l-122 -57l110 -285q33 -86 92 -123q25 -16 54 -18 q-61 -100 -195 -146q-41 -12 -96.5 -12t-119 38t-85.5 97l-113 293q-115 -51 -114 -237v-6q0 -82 26 -150q-66 -35 -156 -35t-139 46t-49 135z" />
<glyph unicode="y" horiz-adv-x="1265" d="M-39 -164q0 84 63.5 132t155.5 48t144.5 -29.5t70.5 -58.5q-47 -41 -47 -108q0 -90 82 -90q135 0 213 311q23 92 43 190q-105 -110 -298 -110h-3q-244 0 -295 178q-16 53 -16 112.5t12 120.5l96 512l416 41l-113 -596q-4 -27 -10 -55t-6 -58q0 -97 103 -97q44 0 82 53 t57 145l112 567l404 41l-154 -804q-76 -393 -231 -549q-80 -80 -183.5 -112t-236.5 -32q-215 0 -338 68t-123 180z" />
<glyph unicode="z" horiz-adv-x="1032" d="M-12 153q0 115 123 207l520 375q-145 41 -277.5 41t-179.5 -90q-70 82 -70 211q0 86 62.5 142.5t193.5 56.5q74 0 140.5 -9.5t126.5 -17.5l110 -16q52 -8 94 -8q69 0 109 22q53 -49 53 -117q0 -106 -131 -217l-518 -387q160 -47 242 -47q172 0 245 82q58 -67 58 -181 q0 -112 -74 -176t-207 -65q-82 0 -179 20.5t-147.5 29.5t-108.5 9t-116 -20q-69 40 -69 155z" />
<glyph unicode="{" horiz-adv-x="753" d="M-6 563l29 148q195 0 231 200l88 486q23 125 108 183t231 58t234 -16l-22 -119h-62q-88 0 -135 -45t-63 -143l-82 -457q-18 -100 -75.5 -148t-174.5 -63q98 -12 129 -37.5t39 -50t8 -59.5t-6 -72l-92 -467q-10 -47 -10 -88q0 -145 131 -145h61l-24 -121 q-111 -16 -230 -17q-266 0 -266 185q0 27 8 67l103 523q6 37 6 67q-2 131 -164 131z" />
<glyph unicode="|" horiz-adv-x="542" d="M-86 -410l399 2048h291l-391 -2048h-299z" />
<glyph unicode="}" horiz-adv-x="753" d="M-184 -393l22 119h62q88 0 135 45t65 143l95 504q18 100 74.5 148t172.5 63q-98 12 -128.5 37.5t-39 50t-8.5 59.5t6 72l80 420q10 47 10 88q0 145 -131 145h-61l25 121q111 16 197 16q149 0 219.5 -46t70.5 -144v-29q0 -16 -4 -33l-86 -475q-6 -37 -6 -67 q2 -131 164 -131l-29 -148q-195 0 -232 -200l-100 -533q-45 -242 -346 -242q-139 1 -227 17z" />
<glyph unicode="~" horiz-adv-x="1032" d="M45 467.5q0 58.5 59.5 98.5t167.5 40q49 0 113 -12l131 -25l121 -26q57 -12 96 -12.5t82 17t59 48.5q43 -49 43.5 -110.5t-58 -104.5t-139.5 -43t-254 35.5t-219 36t-92.5 -15t-64.5 -42.5q-45 57 -45 115.5z" />
<glyph unicode="&#xa1;" horiz-adv-x="583" d="M-70 -151q0 85 33 180.5t73 191.5t73.5 195.5t35.5 204.5q47 53 129 53t126 -38t44 -99q0 -14 -4 -35l-159 -824q-76 -29 -166 -28.5t-137.5 57.5t-47.5 142zM158 922q0 78 60.5 120.5t146.5 42.5t138 -43t52 -120q0 -78 -58.5 -120t-144.5 -42t-140 42t-54 120z" />
<glyph unicode="&#xa2;" horiz-adv-x="1071" d="M55 519q0 306 151.5 483.5t414.5 209.5l8 41q14 88 45 121t86 33t96 -10l-37 -185q244 -27 244 -227q0 -84 -68.5 -138t-191.5 -54q-45 0 -78 14q45 113 45 203t-58.5 90t-106.5 -65.5t-84 -157t-56.5 -184.5t-20.5 -166.5t35 -125t120 -51.5t138 35q96 57 125 129 q78 -39 78 -148.5t-95 -176t-239 -89.5l-8 -47q-16 -90 -47 -121.5t-90.5 -31.5t-95.5 10l36 186q-182 25 -264 142.5t-82 280.5z" />
<glyph unicode="&#xa3;" horiz-adv-x="1212" d="M-1 101.5q1 60.5 18.5 91t45.5 53.5l27 20q86 57 96 117l58 317h-156q-10 27 -10 65t38 63.5t99 25.5h57l31 172q31 170 180.5 268.5t380.5 98.5q152 0 253 -59.5t102 -141.5q0 -190 -226 -191q-61 0 -104 27q35 63 35 125q0 109 -70 109q-47 0 -91 -67t-63 -169 l-28 -172h291q12 -31 12 -65.5t-38 -61.5t-118 -27h-174l-22 -131q-23 -139 -105 -204.5t-192 -90.5l276 -16q102 -6 143 -9t66 -3h51q78 0 164 69q39 -78 39 -127q0 -102 -84 -178t-194.5 -76t-332 43t-290 43.5t-111.5 -22.5q-55 43 -54 103.5z" />
<glyph unicode="&#xa4;" horiz-adv-x="1198" d="M84 330l176 157q-27 61 -27 171t68 212l-182 164l110 152l197 -195q88 53 189.5 53t168.5 -30l181 176l131 -133l-181 -162q37 -72 37 -176.5t-51 -196.5l193 -170l-121 -143l-189 184q-98 -63 -215.5 -63t-185.5 32l-168 -165zM438 670q0 -80 35 -116t110.5 -36t120 49 t44.5 128t-40 119t-110 40t-115 -52t-45 -132z" />
<glyph unicode="&#xa5;" horiz-adv-x="1368" d="M147 1276q92 113 267 113q172 0 251 -122t78 -411v-147q123 360 247 518t280 157q53 -2 98 -32.5t66 -77.5q-135 -59 -262.5 -209t-225.5 -365h152q12 -31 12 -65.5t-36 -61t-111 -26.5h-80l-9 -25l-22 -94h192q33 -85 -23 -127q-36 -27 -112 -27h-92l-63 -274h-457 l53 274h-180q-10 27 -10 65t38 63.5t99 25.5h84l22 119h-180q-10 27 -10 64.5t38 63t99 25.5h53q-68 471 -256 576z" />
<glyph unicode="&#xa6;" horiz-adv-x="555" d="M0 0l109 557h292l-106 -557h-295zM154 795l108 557h293l-106 -557h-295z" />
<glyph unicode="&#xa7;" horiz-adv-x="954" d="M-63 -163q0 89 49 139.5t121.5 50.5t107.5 -23q-29 -66 -29 -141q0 -125 90 -125q47 0 86.5 47t39 96t-29 81t-65.5 61l-96 69q-102 70 -144 133.5t-42 145.5q0 133 73.5 227t227.5 158q-74 59 -100.5 106t-26.5 107q0 205 119.5 314.5t345.5 109.5q131 0 216 -57.5 t85 -147.5t-50.5 -140.5t-124 -50.5t-104.5 23q31 100 31 141q0 125 -90 125q-47 0 -86 -47t-39 -98t39.5 -92t145.5 -115t148 -132.5t42 -125.5q0 -120 -86 -236q-88 -115 -220 -170q78 -63 104.5 -109t26.5 -106q0 -205 -119.5 -314.5t-342.5 -109.5q-131 0 -217 58.5 t-86 147.5zM301 532q0 -44 30 -77t150 -117q45 12 81 59t36 82t-4 49q-10 31 -78 82l-96 74q-72 -18 -108 -104q-11 -25 -11 -48z" />
<glyph unicode="&#xa8;" horiz-adv-x="929" d="M-98 1340.5q0 64.5 58 99.5t144 35t137.5 -35t51.5 -99.5t-57.5 -99.5t-142.5 -35t-138 35t-53 99.5zM379 1340.5q0 64.5 58.5 99.5t144.5 35t137 -35t51 -99.5t-57.5 -99.5t-142.5 -35t-138 35t-53 99.5z" />
<glyph unicode="&#xa9;" horiz-adv-x="1589" d="M33 367q0 184 69.5 345.5t190.5 282.5t281.5 191.5t343.5 70.5q283 0 438 -138t155 -388q0 -190 -67.5 -353t-187 -280.5t-283.5 -185.5t-357 -68q-289 0 -436 132.5t-147 390.5zM244 408q0 -219 105.5 -320.5t332.5 -101.5q270 0 444 193.5t174 494.5 q0 211 -114.5 324.5t-327.5 113.5q-266 0 -438 -203q-176 -202 -176 -501zM434 463q0 229 122 363t338 134.5t216 -163.5q0 -59 -48 -98.5t-106.5 -39t-72.5 10.5q27 63 26.5 133.5t-41.5 70.5q-57 0 -114 -135t-57.5 -235.5t25.5 -133t78 -32.5t93 30.5t63 84.5 q51 -27 51.5 -108t-81.5 -136t-203 -55q-289 0 -289 309z" />
<glyph unicode="&#xaa;" horiz-adv-x="1013" d="M111 385.5q0 36.5 30.5 67t77.5 30.5h608q6 -29 6.5 -63.5t-29.5 -65t-91 -30.5h-596q-6 25 -6 61.5zM139 869q0 132 33 223.5t92.5 155t142 98t166.5 34.5t154 -28l254 28l-109 -573q-4 -12 -4 -19v-12q0 -43 17.5 -68.5t44.5 -25.5q-14 -43 -68.5 -76t-111 -33 t-96.5 24t-52 60q-25 -35 -79 -59.5t-107 -24.5q-135 0 -206 82t-71 214zM420 763.5q0 -104.5 55 -104.5q39 0 72 50.5t47 128.5l84 442q-29 23 -64.5 23t-71.5 -44.5t-62.5 -119t-43 -173t-16.5 -203z" />
<glyph unicode="&#xab;" horiz-adv-x="1105" d="M49 649l342 395h246l-252 -395l98 -391h-239zM518 649l342 395h246l-252 -395l98 -391h-239z" />
<glyph unicode="&#xac;" horiz-adv-x="1112" d="M25 446q0 68 43 110t108 42h807l-113 -596q-16 -8 -90 -8q-129 0 -129 88q0 37 4 57l43 250h-665q-8 26 -8 57z" />
<glyph unicode="&#xad;" horiz-adv-x="802" d="M45 469q0 49 24.5 89t73.5 46h404q68 0 88 41q61 -33 61 -137q0 -41 -31.5 -81t-78.5 -44h-375q-43 0 -63.5 -13t-36.5 -38q-66 47 -66 137z" />
<glyph unicode="&#xae;" horiz-adv-x="1589" d="M55 500q0 184 70 346t190.5 282.5t281.5 191.5t343 71q283 0 438.5 -138.5t155.5 -388.5q0 -190 -67.5 -353t-187.5 -280.5t-284 -185.5t-356 -68q-289 0 -436.5 132.5t-147.5 390.5zM262 541q0 -217 106.5 -319.5t336.5 -102.5q270 0 446 192q176 193 176 496 q0 211 -115.5 324.5t-330.5 113.5q-131 0 -245 -54t-198 -149q-176 -200 -176 -501zM438 309l144 768q70 8 303 8q270 0 270 -190q0 -92 -54 -157.5t-147 -86.5q18 -104 54 -156.5t96 -68.5q-10 -63 -55 -99t-113 -36q-172 0 -184 414h20q168 10 168 182q0 113 -102 112 q-12 0 -54 -4l-122 -686h-224z" />
<glyph unicode="&#xaf;" horiz-adv-x="727" d="M-74 1334q2 48 40 84t97 36h494q8 -25 8 -70t-39 -81.5t-116 -36.5h-480q-6 20 -4 68z" />
<glyph unicode="&#xb0;" horiz-adv-x="798" d="M123 1000q0 191 127 300q121 100 293 101q127 0 199.5 -66.5t72.5 -174.5q0 -194 -121 -298t-295 -104q-127 0 -201.5 66.5t-74.5 175.5zM336 1015q0 -54 22.5 -94t61.5 -40q73 0 133 71q57 74 57 153t-25.5 121t-66.5 42t-72.5 -20.5t-56 -54.5t-39 -79t-14.5 -99z" />
<glyph unicode="&#xb1;" horiz-adv-x="940" d="M-16 0q-26 103 28 154q37 34 105 34h637q10 -37 10 -63q0 -125 -160 -125h-620zM57 555q0 66 42 108t108 42h158l22 112q14 63 58 100t99.5 37t92.5 -14l-43 -235h252l6 -33q4 -14 4 -29q0 -137 -162 -137h-141l-27 -139q-25 -125 -153 -125q-49 0 -92 14l47 250h-262 q-9 26 -9 49z" />
<glyph unicode="&#xb2;" horiz-adv-x="727" d="M59 515l146 112l91 75q47 39 81 74q62 62 62 122q0 34 -23 53t-56 19q-56 0 -102 -28q-44 -29 -65 -73q-29 1 -48.5 25.5t-19.5 59.5q0 73 84 128q87 53 205 53.5t184.5 -51t66.5 -139.5q0 -65 -32 -124.5t-117 -120.5l-126 -88l-76 -51l-97 -59l41 -5q28 -3 77 -3 q94 0 168.5 21t98.5 50q13 -9 23 -33t10 -53q0 -88 -66.5 -124t-203.5 -36q-71 0 -165.5 20.5t-132.5 31.5z" />
<glyph unicode="&#xb3;" horiz-adv-x="686" d="M42 453q0 61 45 99q45 -84 160 -84q54 0 88 28t34 84q0 104 -143 104l20 105q171 28 171 112q0 34 -23.5 53t-68.5 19q-78 0 -148 -73q-22 6 -31 21.5t-9 48.5t23 64t64 55q89 49 193 49t162.5 -47.5t58.5 -115.5t-51 -124q-52 -56 -137 -87q155 -40 156 -190 q0 -109 -96 -182t-258 -73q-96 0 -153 36.5t-57 97.5z" />
<glyph unicode="&#xb4;" horiz-adv-x="634" d="M-74 1208l484 299q74 -29 73.5 -127t-79.5 -151t-183 -72l-252 -47z" />
<glyph unicode="&#xb6;" horiz-adv-x="1488" d="M66 -242q0 6 6 25q68 -37 190 -37q80 0 141.5 58.5t79.5 154.5l117 590q-74 -31 -206 -31t-208.5 80t-76.5 213q0 261 174 416.5t467 154.5q119 0 206 -30l-272 -1463q-75 -299 -346.5 -299t-271.5 156v12zM854 -41l274 1393h232q133 0 203 8q-11 -90 -49.5 -128 t-107.5 -38t-106 10l-221 -1204z" />
<glyph unicode="&#xb7;" horiz-adv-x="548" d="M43 480.5q0 74.5 57.5 119.5t147.5 45t141 -44t51 -118.5t-55 -119t-147 -44.5q-93 0 -144 43.5t-51 118z" />
<glyph unicode="&#xb8;" horiz-adv-x="983" d="M174 -422q0 49 37 78q39 -66 137 -66q59 0 91 24t32 64q0 96 -156 97q-41 0 -86 -4l76 252h107l-43 -144q33 4 109.5 4t140 -47t63.5 -117q0 -111 -85 -179t-224 -68q-92 0 -145.5 28.5t-53.5 77.5z" />
<glyph unicode="&#xb9;" horiz-adv-x="690" d="M58 367q0 47 26.5 75t67.5 28h63l99 444q-36 -37 -112 -37q-38 0 -67 34t-34 82q174 30 433 146l38 -44l-114 -625h29q71 0 107 13q15 -26 15 -68.5t-31 -67.5t-83 -25q-104 0 -207 5l-75 2q-102 3 -151 -4q-4 19 -4 42z" />
<glyph unicode="&#xba;" horiz-adv-x="968" d="M88 371q0 51 31 81.5t78 30.5h569q8 -20 8 -57t-29.5 -69.5t-93.5 -32.5h-555q-8 41 -8 47zM143 858q0 237 120 380t349 142q318 0 318 -338q0 -209 -131 -342q-133 -127 -361 -127q-151 0 -223 82t-72 203zM422 786.5q0 -73.5 13.5 -100.5t43 -27t62 49.5t57.5 125.5 q55 170 55 337q0 66 -9 94.5t-43 28.5t-67.5 -51t-58 -128t-39 -166t-14.5 -162.5z" />
<glyph unicode="&#xbb;" horiz-adv-x="1103" d="M-2 258l244 391l-105 395h246l195 -395l-340 -391h-240zM467 258l244 391l-105 395h246l195 -395l-340 -391h-240z" />
<glyph unicode="&#xbc;" horiz-adv-x="1669" d="M104 598v20q0 47 26 76t63 29h321q55 0 98 12q16 -25 16.5 -66.5t-29.5 -67.5t-77 -26l-350 9q-45 0 -63 -6q-4 10 -5 20zM143 1245q168 27 422 146l35 -45l-135 -725h-234l119 544q-29 -35 -104 -35q-37 0 -68 34t-35 81zM389 -127q0 20 12 51l670 1546q20 4 62.5 4.5 t68 -11t25.5 -44.5t-19 -84l-661 -1515q-12 -6 -64 -6q-94 0 -94 59zM911 313l435 482l170 -17q-53 -223 -101 -477q70 6 105 29q23 -37 22 -82q0 -98 -156 -111l-20 -137q-33 -25 -92 -25q-98 0 -98 86v7q0 10 2 20l8 53q-147 10 -268 39zM1040 309q102 -10 174 -10 q37 172 80 301z" />
<glyph unicode="&#xbd;" horiz-adv-x="1671" d="M104 598v20q0 47 26 76t63 29h321q55 0 98 12q16 -25 16.5 -66.5t-29.5 -67.5t-77 -26l-350 9q-45 0 -63 -6q-4 10 -5 20zM143 1245q168 27 422 146l35 -45l-135 -725h-234l119 544q-29 -35 -104 -35q-37 0 -68 34t-35 81zM389 -127q0 20 12 51l670 1546q20 4 62.5 4.5 t68 -11t25.5 -44.5t-19 -84l-661 -1515q-12 -6 -64 -6q-94 0 -94 59zM940 172l64 45l83 66q100 82 166 146.5t66 125.5q0 74 -86 74q-49 0 -94 -29t-66 -74q-29 2 -48 27t-19 61q0 73 84 125.5t203.5 53t186 -50t66.5 -127t-31.5 -136t-117.5 -121.5l-203 -139 q-41 -27 -96 -59q74 -8 141.5 -8t142 20t101.5 51q33 -23 33 -98q0 -147 -271 -148q-121 0 -297 52z" />
<glyph unicode="&#xbe;" horiz-adv-x="1679" d="M68 695q0 62 47 100q43 -86 155 -86q59 0 94 29.5t35 82.5q0 106 -145 107l20 106q172 29 172 115q0 72 -86 72t-155 -74q-41 8 -41 74t88 115.5t194.5 49.5t166 -47t59.5 -115.5t-52.5 -125.5t-138.5 -88q156 -41 156 -193q0 -111 -96 -185.5t-260 -74.5 q-98 0 -155.5 38t-57.5 100zM403 -127q0 20 13 51l669 1546q20 4 50 5q82 0 98 -29q8 -10 8 -33.5t-18 -77.5l-662 -1515q-12 -6 -63 -6q-95 0 -95 59zM926 313l434 482h8l162 -17q-53 -223 -100 -477q69 6 104 29q23 -37 22 -82q0 -98 -155 -111l-21 -137q-31 -25 -80 -25 h-12q-98 0 -98 86v7q0 10 2 20l8 53q-147 10 -268 39zM1055 309q102 -10 174 -10q37 172 80 301z" />
<glyph unicode="&#xbf;" horiz-adv-x="1062" d="M-82 -98q0 176 172 309q53 41 117 82l391 254q80 53 80 131q59 0 98 -51.5t39 -122.5q0 -164 -156 -260l-231 -144q-161 -108 -164 -231q0 -94 94 -94q74 0 122 56t50 125.5t-16 106.5q45 12 135 12.5t155.5 -36.5t65.5 -103q0 -130 -136 -207t-379.5 -77t-340 67.5 t-96.5 182.5zM530 924q0 78 58.5 119.5t144.5 41.5t140.5 -42t54.5 -119q0 -78 -60.5 -121t-146.5 -43t-138.5 43t-52.5 121z" />
<glyph unicode="&#xc0;" d="M-115 0l645 1352h441l86 -996q20 -215 102 -278q-59 -119 -225 -119q-262 0 -287 373h-352q-39 -94 -70 -176l-53 -156h-287zM358 481h283l-25 527v55l-145 -322zM434 1667q0 57 58 98l501 -209l-24 -100l-244 8q-291 10 -291 203z" />
<glyph unicode="&#xc1;" d="M-115 0l645 1352h441l86 -996q20 -215 102 -278q-59 -119 -225 -119q-262 0 -287 373h-352q-39 -94 -70 -176l-53 -156h-287zM358 481h283l-25 527v55l-145 -322zM539 1554l501 209q57 -41 58 -99q0 -102 -81 -150t-210 -52l-244 -8z" />
<glyph unicode="&#xc2;" d="M-115 0l645 1352h441l86 -996q20 -215 102 -278q-59 -119 -225 -119q-262 0 -287 373h-352q-39 -94 -70 -176l-53 -156h-287zM358 481h283l-25 527v55l-145 -322zM436 1536l395 219l279 -213l-90 -108l-236 100l-297 -111z" />
<glyph unicode="&#xc3;" d="M-115 0h287l53 156q31 82 70 176h352q25 -373 287 -373q166 0 225 119q-82 63 -102 278l-86 996h-441zM358 481l113 260l145 322v-55l25 -527h-283zM369 1576.5q0 61.5 52 97.5t138 36t236 -17.5t222.5 -17.5t106.5 35q39 -45 39 -111.5t-52 -105.5t-144 -39q-37 0 -97 6 l-120 13q-61 6 -116.5 12t-86.5 6q-86 0 -137 -35q-41 59 -41 120.5z" />
<glyph unicode="&#xc4;" d="M-115 0l645 1352h441l86 -996q20 -215 102 -278q-59 -119 -225 -119q-262 0 -287 373h-352q-39 -94 -70 -176l-53 -156h-287zM358 481h283l-25 527v55l-145 -322zM397 1584.5q0 64.5 51.5 99t124 34.5t116.5 -34.5t44 -99t-49 -99.5t-121 -35q-71 0 -118.5 35t-47.5 99.5 zM780 1584.5q0 64.5 50.5 99t123 34.5t117.5 -34.5t45 -99t-50 -99.5t-122 -35t-118 35t-46 99.5z" />
<glyph unicode="&#xc5;" d="M-115 0l645 1352h441l86 -996q20 -215 102 -278q-59 -119 -225 -119q-262 0 -287 373h-352q-39 -94 -70 -176l-53 -156h-287zM358 481h283l-25 527v55l-145 -322zM547 1541q0 100 83 154t185 54q205 0 205 -137q0 -90 -80 -144.5t-183.5 -54.5t-156.5 36t-53 92z M696 1556q0 -70 62 -69q45 0 82 32.5t37 69.5q0 80 -68 80q-47 0 -80 -34t-33 -79z" />
<glyph unicode="&#xc6;" horiz-adv-x="1609" d="M-133 0l758 1352h1013v-41q0 -29 -15 -73t-48 -77q-66 -66 -167 -65.5t-157.5 17.5t-101.5 38l-49 -358h387v-15q0 -102 -55.5 -158.5t-151.5 -56.5t-182 35q-18 8 -23 12l-4 -22q-23 -131 -22 -242q0 -53 29.5 -90t105.5 -37q148 0 239 96q43 -53 43 -131 q0 -225 -362 -225q-307 0 -397 201q-31 70 -31 164v14q0 8 2 24h-322l-170 -362h-319zM434 520h264l90 631q-98 -160 -186 -315z" />
<glyph unicode="&#xc7;" horiz-adv-x="1292" d="M59 475q0 342 179 602q135 193 376 275q125 41 248 41q218 0 337.5 -69t119.5 -178t-94 -183.5t-168 -74t-105 10.5q20 188 -6 272q-20 76 -82.5 76t-125 -58.5t-115.5 -156.5q-121 -223 -121 -487q0 -127 71.5 -200t206 -73t242.5 76q47 33 82 76q53 -39 53 -122 q0 -153 -145.5 -247t-406.5 -94t-403.5 136t-142.5 378zM395 -422q0 49 37 78q39 -66 137 -66q59 0 91 24t32 64q0 96 -156 97q-41 0 -86 -4l76 252h107l-43 -144q33 4 109.5 4t140 -47t63.5 -117q0 -111 -85 -179t-224 -68q-92 0 -145.5 28.5t-53.5 77.5z" />
<glyph unicode="&#xc8;" horiz-adv-x="1101" d="M16 0l252 1352h883q0 -125 -60.5 -190.5t-179 -65.5t-239.5 55l-64 -358h365q0 -109 -53.5 -169.5t-142.5 -60.5t-144 20.5t-62 26.5l-73 -387q49 -6 141 -6q157 0 270 98q39 -49 39 -129q0 -111 -82 -169t-211 -58q-74 0 -240.5 25.5t-234 25.5t-94.5 -3t-70 -7z M348 1663q0 59 58 100l501 -209l-24 -100l-244 8q-291 11 -291 201z" />
<glyph unicode="&#xc9;" horiz-adv-x="1101" d="M16 0l252 1352h883q0 -125 -60.5 -190.5t-179 -65.5t-239.5 55l-64 -358h365q0 -109 -53.5 -169.5t-142.5 -60.5t-144 20.5t-62 26.5l-73 -387q49 -6 141 -6q157 0 270 98q39 -49 39 -129q0 -111 -82 -169t-211 -58q-74 0 -240.5 25.5t-234 25.5t-94.5 -3t-70 -7z M514 1554l502 209q57 -41 57 -100q0 -101 -86 -156q-72 -41 -205 -45l-243 -8z" />
<glyph unicode="&#xca;" horiz-adv-x="1101" d="M16 0l252 1352h883q0 -125 -60.5 -190.5t-179 -65.5t-239.5 55l-64 -358h365q0 -109 -53.5 -169.5t-142.5 -60.5t-144 20.5t-62 26.5l-73 -387q49 -6 141 -6q157 0 270 98q39 -49 39 -129q0 -111 -82 -169t-211 -58q-74 0 -240.5 25.5t-234 25.5t-94.5 -3t-70 -7z M381 1534l395 219l279 -213l-90 -108l-236 100l-297 -111z" />
<glyph unicode="&#xcb;" horiz-adv-x="1101" d="M16 0l252 1352h883q0 -125 -60.5 -190.5t-179 -65.5t-239.5 55l-64 -358h365q0 -109 -53.5 -169.5t-142.5 -60.5t-144 20.5t-62 26.5l-73 -387q49 -6 141 -6q157 0 270 98q39 -49 39 -129q0 -111 -82 -169t-211 -58q-74 0 -240.5 25.5t-234 25.5t-94.5 -3t-70 -7z M369 1567.5q0 64.5 53 99.5t130 35t123 -35t46 -99.5t-51.5 -99t-126.5 -34.5q-76 0 -125 34.5t-49 99zM782 1567.5q0 64.5 52.5 99.5t129 35t124 -35t47.5 -99.5t-52.5 -99t-128.5 -34.5q-75 0 -123.5 34.5t-48.5 99z" />
<glyph unicode="&#xcc;" horiz-adv-x="733" d="M12 0l260 1352h451l-264 -1352h-447zM211 1663q0 59 57 100l502 -209l-25 -100l-243 8q-291 11 -291 201z" />
<glyph unicode="&#xcd;" horiz-adv-x="733" d="M12 0l260 1352h451l-264 -1352h-447zM270 1554l502 209q57 -41 57 -100q0 -100 -88 -156q-72 -41 -202 -45l-244 -8z" />
<glyph unicode="&#xce;" horiz-adv-x="733" d="M12 0l260 1352h451l-264 -1352h-447zM199 1534l395 219l278 -213l-90 -108l-235 100l-297 -111z" />
<glyph unicode="&#xcf;" horiz-adv-x="733" d="M12 0l260 1352h451l-264 -1352h-447zM168 1567.5q0 64.5 51 99.5t124 35t117 -35t44 -99.5t-49 -99t-121 -34.5t-119 34.5t-47 99zM551 1567.5q0 64.5 50 99.5t123 35t118 -35t45 -99.5t-50.5 -99t-121.5 -34.5q-72 0 -118 34.5t-46 99z" />
<glyph unicode="&#xd0;" horiz-adv-x="1480" d="M-20 584q-31 103 33 167q42 42 110 42h719q10 -35 10 -62q0 -66 -46 -106.5t-124 -40.5h-702zM63 14l232 1211q14 82 24 129q693 79 926 -99q166 -124 166 -405q0 -872 -946 -873q-152 0 -402 37zM518 129q8 -4 17 -4h16q76 0 154.5 47t142.5 143q141 224 141 611 q0 305 -219 305h-20q-10 0 -21 -2z" />
<glyph unicode="&#xd1;" horiz-adv-x="1439" d="M20 0l246 1352h441l319 -930l170 930l227 -2l-249 -1350h-469l-295 895l-164 -895h-226zM508 1558.5q0 61.5 52 97.5t138.5 36t236 -17.5t222 -17.5t107.5 35q39 -45 39 -111.5t-52.5 -105.5t-144.5 -39q-37 0 -96 6l-121 12q-61 6 -116.5 12.5t-86.5 6.5q-86 0 -137 -35 q-41 59 -41 120.5z" />
<glyph unicode="&#xd2;" horiz-adv-x="1454" d="M66 500q0 387 200 630q213 264 584 265q268 0 403.5 -130t135.5 -405q0 -418 -212 -659.5t-567 -241.5q-276 0 -410 138.5t-134 402.5zM512 264q0 -70 23.5 -115t86 -45t101.5 30t79 119t86 323.5t50 332t4 171t-22.5 120.5t-83 47t-101.5 -37q-76 -69 -131 -286 q-92 -369 -92 -660zM573 1663q0 59 58 100l502 -209l-25 -100l-244 8q-291 11 -291 201z" />
<glyph unicode="&#xd3;" horiz-adv-x="1454" d="M66 500q0 387 200 630q213 264 584 265q268 0 403.5 -130t135.5 -405q0 -418 -212 -659.5t-567 -241.5q-276 0 -410 138.5t-134 402.5zM512 264q0 -70 23.5 -115t86 -45t101.5 30t79 119t86 323.5t50 332t4 171t-22.5 120.5t-83 47t-101.5 -37q-76 -69 -131 -286 q-92 -369 -92 -660zM688 1554l502 209q57 -41 57 -99q0 -104 -82 -157q-70 -41 -209 -45l-243 -8z" />
<glyph unicode="&#xd4;" horiz-adv-x="1454" d="M66 500q0 387 200 630q213 264 584 265q268 0 403.5 -130t135.5 -405q0 -418 -212 -659.5t-567 -241.5q-276 0 -410 138.5t-134 402.5zM512 264q0 -70 23.5 -115t86 -45t101.5 30t79 119t86 323.5t50 332t4 171t-22.5 120.5t-83 47t-101.5 -37q-76 -69 -131 -286 q-92 -369 -92 -660zM541 1534l395 219l278 -213l-90 -108l-235 100l-297 -111z" />
<glyph unicode="&#xd5;" horiz-adv-x="1454" d="M66 500q0 387 200 630q213 264 584 265q268 0 403.5 -130t135.5 -405q0 -418 -212 -659.5t-567 -241.5q-276 0 -410 138.5t-134 402.5zM502 1576.5q0 61.5 52 97.5t138.5 36t236 -17.5t222 -17.5t107.5 35q39 -45 39 -111.5t-52.5 -105.5t-144.5 -39q-37 0 -96 6l-121 12 q-61 6 -116.5 12.5t-86.5 6.5q-86 0 -137 -35q-41 59 -41 120.5zM512 264q0 -70 23.5 -115t86 -45t101.5 30t79 119t86 323.5t50 332t4 171t-22.5 120.5t-83 47t-101.5 -37q-76 -69 -131 -286q-92 -369 -92 -660z" />
<glyph unicode="&#xd6;" horiz-adv-x="1454" d="M66 500q0 387 200 630q213 264 584 265q268 0 403.5 -130t135.5 -405q0 -418 -212 -659.5t-567 -241.5q-276 0 -410 138.5t-134 402.5zM512 264q0 -70 23.5 -115t86 -45t101.5 30t79 119t86 323.5t50 332t4 171t-22.5 120.5t-83 47t-101.5 -37q-76 -69 -131 -286 q-92 -369 -92 -660zM514 1567.5q0 64.5 53.5 99.5t130 35t122.5 -35t46 -99.5t-51 -99t-127 -34.5t-125 34.5t-49 99zM928 1567.5q0 64.5 52 99.5t129 35t124 -35t47 -99.5t-52 -99t-128 -34.5t-124 34.5t-48 99z" />
<glyph unicode="&#xd7;" horiz-adv-x="980" d="M-51 72l377 385l-119 159q-27 37 -53.5 71t-26.5 89t38 95t105 55l213 -305l230 235q57 61 132 61.5t99 -61.5l-149 -149l-209 -218q37 -53 69 -96l62 -80q31 -39 54.5 -72.5t23.5 -66.5q0 -66 -45 -108.5t-117 -45.5q-12 20 -29 46l-180 258l-166 -172l-65 -72 q-57 -57 -134 -57t-110 49z" />
<glyph unicode="&#xd8;" horiz-adv-x="1454" d="M48 13.5q-1 64.5 48 119.5l1116 1270q31 39 52 74q45 0 80.5 -42t35.5 -101.5t-53 -116.5l-1038 -1168q-70 -72 -125 -168q-51 0 -83 34t-33 98.5zM66 500q0 387 200 630q213 264 584 265q268 0 403.5 -130t135.5 -405q0 -418 -212 -659.5t-567 -241.5q-276 0 -410 138.5 t-134 402.5zM512 264q0 -70 23.5 -115t86 -45t101.5 30t79 119t86 323.5t50 332t4 171t-22.5 120.5t-83 47t-101.5 -37q-76 -69 -131 -286q-92 -369 -92 -660z" />
<glyph unicode="&#xd9;" horiz-adv-x="1370" d="M74 303q0 80 20 182l166 867h453l-164 -873q-40 -212 11 -274q30 -37 85 -37q100 0 154 63q55 70 90 248l166 873h309l-164 -871q-57 -291 -213 -406.5t-459 -115.5q-227 0 -340.5 92t-113.5 252zM541 1663q0 59 57 100l502 -209l-25 -100l-244 8q-290 11 -290 201z" />
<glyph unicode="&#xda;" horiz-adv-x="1370" d="M74 303q0 80 20 182l166 867h453l-164 -873q-40 -212 11 -274q30 -37 85 -37q100 0 154 63q55 70 90 248l166 873h309l-164 -871q-57 -291 -213 -406.5t-459 -115.5q-227 0 -340.5 92t-113.5 252zM686 1554l502 209q29 -20 43 -41.5t14 -68.5q0 -93 -81 -140t-210 -51 l-243 -8z" />
<glyph unicode="&#xdb;" horiz-adv-x="1370" d="M74 303q0 80 20 182l166 867h453l-164 -873q-40 -212 11 -274q30 -37 85 -37q100 0 154 63q55 70 90 248l166 873h309l-164 -871q-57 -291 -213 -406.5t-459 -115.5q-227 0 -340.5 92t-113.5 252zM547 1534l395 219l279 -213l-91 -108l-235 100l-297 -111z" />
<glyph unicode="&#xdc;" horiz-adv-x="1370" d="M74 303q0 80 20 182l166 867h453l-164 -873q-40 -212 11 -274q30 -37 85 -37q100 0 154 63q55 70 90 248l166 873h309l-164 -871q-57 -291 -213 -406.5t-459 -115.5q-227 0 -340.5 92t-113.5 252zM514 1567.5q0 64.5 53.5 99.5t130 35t122.5 -35t46 -99.5t-51 -99 t-127 -34.5t-125 34.5t-49 99zM928 1567.5q0 64.5 52 99.5t129 35t124 -35t47 -99.5t-52 -99t-128 -34.5t-124 34.5t-48 99z" />
<glyph unicode="&#xdd;" horiz-adv-x="1220" d="M80 1276q92 113 266 113q172 0 251 -122t79 -411v-147q123 360 247 518t279 157q61 0 102.5 -31.5t61.5 -78.5q-158 -70 -309 -270q-152 -201 -250 -482l-121 -522h-457l119 602q-59 555 -268 674zM524 1534l502 209q29 -20 43 -42t14 -69q0 -96 -88 -143 q-74 -43 -202 -47l-244 -8z" />
<glyph unicode="&#xde;" horiz-adv-x="1331" d="M12 0l260 1352h451l-53 -269q41 2 82 2h88q449 0 448 -354q0 -197 -126 -314.5t-337 -117.5q-102 0 -180 57q-37 25 -63 58q156 0 233.5 99t77.5 261q0 182 -176 182h-43q-16 0 -27 -2l-186 -954h-449z" />
<glyph unicode="&#xdf;" horiz-adv-x="1546" d="M-266 -262q88 0 160.5 87t105.5 234l223 1088q39 203 197 307.5t420 104.5q199 0 321.5 -78t122.5 -201q0 -82 -44 -135t-98.5 -99.5t-98.5 -92.5t-44 -111q0 -35 35 -61.5t88 -59.5l144 -90q111 -68 156.5 -127.5t45.5 -140t-43 -156.5t-118 -131q-160 -117 -404 -117 q-133 0 -232.5 68.5t-99.5 152.5t57.5 135.5t144.5 51.5t140 -33q-27 -59 -26 -180q6 -94 78 -95q53 0 96 36t43 88.5t-37 99.5t-111 95q-133 85 -213 187t-79.5 169t22 115t54 91t71.5 84q148 156 147 289q0 66 -36.5 109.5t-80.5 43.5q-77 0 -137.5 -90t-89.5 -237 l-208 -1082q-45 -236 -148.5 -339t-280.5 -103t-243 123z" />
<glyph unicode="&#xe0;" horiz-adv-x="1286" d="M33 420q0 137 47 262t133 215q176 188 467 188q104 0 180 -34l350 34l-151 -798q-6 -25 -6 -70t27.5 -73.5t68.5 -32.5q-20 -70 -95 -111t-159 -41t-140.5 32t-72.5 85q-33 -51 -102.5 -84t-162.5 -33t-169 24.5t-124 78t-69.5 137.5t-21.5 221zM424 278.5 q0 -118.5 18.5 -153.5t51.5 -35q66 0 113.5 62.5t66.5 173.5l108 600q-43 37 -93 37t-79.5 -16.5t-53.5 -53.5t-44 -99.5t-54 -229.5t-34 -285.5zM428 1432q0 109 74 137l483 -299l-43 -98l-252 47q-172 31 -238 129q-25 37 -24 84z" />
<glyph unicode="&#xe1;" horiz-adv-x="1286" d="M33 420q0 137 47 262t133 215q176 188 467 188q104 0 180 -34l350 34l-151 -798q-6 -25 -6 -70t27.5 -73.5t68.5 -32.5q-20 -70 -95 -111t-159 -41t-140.5 32t-72.5 85q-33 -51 -102.5 -84t-162.5 -33t-169 24.5t-124 78t-69.5 137.5t-21.5 221zM424 278.5 q0 -118.5 18.5 -153.5t51.5 -35q66 0 113.5 62.5t66.5 173.5l108 600q-43 37 -93 37t-79.5 -16.5t-53.5 -53.5t-44 -99.5t-54 -229.5t-34 -285.5zM569 1276l484 299q74 -29 73.5 -127t-79.5 -151t-183 -72l-252 -47z" />
<glyph unicode="&#xe2;" horiz-adv-x="1286" d="M33 420q0 137 47 262t133 215q176 188 467 188q104 0 180 -34l350 34l-151 -798q-6 -25 -6 -70t27.5 -73.5t68.5 -32.5q-20 -70 -95 -111t-159 -41t-140.5 32t-72.5 85q-33 -51 -102.5 -84t-162.5 -33t-169 24.5t-124 78t-69.5 137.5t-21.5 221zM390 1309l399 266 l313 -268l-102 -125l-240 147l-303 -147zM424 278.5q0 -118.5 18.5 -153.5t51.5 -35q66 0 113.5 62.5t66.5 173.5l108 600q-43 37 -93 37t-79.5 -16.5t-53.5 -53.5t-44 -99.5t-54 -229.5t-34 -285.5z" />
<glyph unicode="&#xe3;" horiz-adv-x="1286" d="M33 420q0 137 47 262t133 215q176 188 467 188q104 0 180 -34l350 34l-151 -798q-6 -25 -6 -70t27.5 -73.5t68.5 -32.5q-20 -70 -95 -111t-159 -41t-140.5 32t-72.5 85q-33 -51 -102.5 -84t-162.5 -33t-169 24.5t-124 78t-69.5 137.5t-21.5 221zM387 1349.5 q0 61.5 52 97.5t138.5 36t236 -17.5t222 -17.5t107.5 35q39 -45 39 -111.5t-52.5 -105.5t-144.5 -39q-37 0 -96 6l-121 12q-61 6 -116.5 12.5t-86.5 6.5q-86 0 -137 -35q-41 59 -41 120.5zM424 278.5q0 -118.5 18.5 -153.5t51.5 -35q66 0 113.5 62.5t66.5 173.5l108 600 q-43 37 -93 37t-79.5 -16.5t-53.5 -53.5t-44 -99.5t-54 -229.5t-34 -285.5z" />
<glyph unicode="&#xe4;" horiz-adv-x="1286" d="M33 420q0 137 47 262t133 215q176 188 467 188q104 0 180 -34l350 34l-151 -798q-6 -25 -6 -70t27.5 -73.5t68.5 -32.5q-20 -70 -95 -111t-159 -41t-140.5 32t-72.5 85q-33 -51 -102.5 -84t-162.5 -33t-169 24.5t-124 78t-69.5 137.5t-21.5 221zM318 1340.5 q0 64.5 58 99.5t144 35t137.5 -35t51.5 -99.5t-57.5 -99.5t-142.5 -35t-138 35t-53 99.5zM424 278.5q0 -118.5 18.5 -153.5t51.5 -35q66 0 113.5 62.5t66.5 173.5l108 600q-43 37 -93 37t-79.5 -16.5t-53.5 -53.5t-44 -99.5t-54 -229.5t-34 -285.5zM795 1340.5 q0 64.5 58.5 99.5t144.5 35t137 -35t51 -99.5t-57.5 -99.5t-142.5 -35t-138 35t-53 99.5z" />
<glyph unicode="&#xe5;" horiz-adv-x="1286" d="M33 420q0 137 47 262t133 215q176 188 467 188q104 0 180 -34l350 34l-151 -798q-6 -25 -6 -70t27.5 -73.5t68.5 -32.5q-20 -70 -95 -111t-159 -41t-140.5 32t-72.5 85q-33 -51 -102.5 -84t-162.5 -33t-169 24.5t-124 78t-69.5 137.5t-21.5 221zM424 278.5 q0 -118.5 18.5 -153.5t51.5 -35q66 0 113.5 62.5t66.5 173.5l108 600q-43 37 -93 37t-79.5 -16.5t-53.5 -53.5t-44 -99.5t-54 -229.5t-34 -285.5zM522 1320q0 103 83 160.5t185.5 57.5t153.5 -38t51 -96q0 -103 -81 -160.5t-183 -57.5t-155.5 38t-53.5 96zM680 1343 q0 -80 57 -79q47 0 77 34.5t30 73.5q0 82 -60 82q-43 0 -73.5 -36t-30.5 -75z" />
<glyph unicode="&#xe6;" horiz-adv-x="1755" d="M33 403q0 307 179 494.5t464 187.5q150 -8 264 -86q172 86 418 86q170 0 266 -64.5t96 -178.5q1 -361 -622 -361q-8 -74 -8 -98q0 -166 153 -166q137 0 240 78q31 25 47 51q51 -37 51 -110q0 -129 -134 -203t-309 -74t-271.5 40t-145.5 130q-35 -72 -116 -121t-191 -49 q-210 0 -295.5 112t-85.5 332zM416 283q0 -199 86 -199q66 0 118.5 97.5t90.5 348.5l71 396q-45 37 -96 37q-105 0 -187.5 -190t-82.5 -490zM1112 569q141 0 227 86t86 228q0 98 -82 98q-74 0 -134 -106.5t-97 -305.5z" />
<glyph unicode="&#xe7;" horiz-adv-x="1060" d="M35 399q0 322 179 504t502.5 182t323.5 -233q0 -86 -71.5 -139.5t-188.5 -53.5q-49 0 -78 15q37 85 37 205q0 86 -59 86q-41 0 -87 -51.5t-85 -131.5q-86 -184 -86 -370q0 -102 39 -148.5t125 -46.5q119 0 213 98q27 31 41 66q78 -41 78 -155t-129 -190.5t-338 -76.5 q-416 0 -416 440zM199 -422q0 49 37 78q39 -66 137 -66q59 0 91 24t32 64q0 96 -156 97q-41 0 -86 -4l76 252h107l-43 -144q33 4 109.5 4t140 -47t63.5 -117q0 -111 -85 -179t-224 -68q-92 0 -145.5 28.5t-53.5 77.5z" />
<glyph unicode="&#xe8;" horiz-adv-x="1089" d="M31 385q0 309 174 505t487 195q195 0 291 -81q72 -61 72 -162q0 -360 -623 -361q-8 -53 -8 -98q0 -94 42 -130t120 -36t160.5 36t117.5 93q51 -35 51 -112q0 -136 -141 -207q-131 -68 -272.5 -68t-224 30.5t-138.5 88.5q-109 109 -108 307zM336 1432q0 109 74 137 l483 -299l-43 -98l-252 47q-172 31 -238 129q-25 37 -24 84zM446 569q145 0 229.5 88t84.5 226q0 98 -70 98q-35 0 -64.5 -13.5t-60.5 -58.5q-76 -102 -119 -340z" />
<glyph unicode="&#xe9;" horiz-adv-x="1089" d="M31 385q0 309 174 505t487 195q195 0 291 -81q72 -61 72 -162q0 -360 -623 -361q-8 -53 -8 -98q0 -94 42 -130t120 -36t160.5 36t117.5 93q51 -35 51 -112q0 -136 -141 -207q-131 -68 -272.5 -68t-224 30.5t-138.5 88.5q-109 109 -108 307zM446 569q145 0 229.5 88 t84.5 226q0 98 -70 98q-35 0 -64.5 -13.5t-60.5 -58.5q-76 -102 -119 -340zM510 1276l484 299q74 -29 73.5 -127t-79.5 -151t-183 -72l-252 -47z" />
<glyph unicode="&#xea;" horiz-adv-x="1089" d="M31 385q0 309 174 505t487 195q195 0 291 -81q72 -61 72 -162q0 -360 -623 -361q-8 -53 -8 -98q0 -94 42 -130t120 -36t160.5 36t117.5 93q51 -35 51 -112q0 -136 -141 -207q-131 -68 -272.5 -68t-224 30.5t-138.5 88.5q-109 109 -108 307zM342 1307l399 266l313 -268 l-102 -125l-240 147l-303 -147zM446 569q145 0 229.5 88t84.5 226q0 98 -70 98q-35 0 -64.5 -13.5t-60.5 -58.5q-76 -102 -119 -340z" />
<glyph unicode="&#xeb;" horiz-adv-x="1089" d="M31 385q0 309 174 505t487 195q195 0 291 -81q72 -61 72 -162q0 -360 -623 -361q-8 -53 -8 -98q0 -94 42 -130t120 -36t160.5 36t117.5 93q51 -35 51 -112q0 -136 -141 -207q-131 -68 -272.5 -68t-224 30.5t-138.5 88.5q-109 109 -108 307zM260 1341q0 64 58 98.5 t144 34.5t137.5 -34.5t51.5 -98.5t-57.5 -98.5t-142.5 -34.5t-138 34.5t-53 98.5zM446 569q145 0 229.5 88t84.5 226q0 98 -70 98q-35 0 -64.5 -13.5t-60.5 -58.5q-76 -102 -119 -340zM737 1341q0 64 58.5 98.5t144.5 34.5t137 -34.5t51 -98.5t-57.5 -98.5t-142.5 -34.5 t-138 34.5t-53 98.5z" />
<glyph unicode="&#xec;" horiz-adv-x="661" d="M35 158q0 166 76 489l75 397l412 41l-125 -647q-35 -152 -35 -205q0 -116 84 -120q-63 -154 -266 -154q-102 0 -161.5 65.5t-59.5 133.5zM168 1432q0 109 74 137l483 -299l-43 -98l-252 47q-172 31 -238 129q-25 37 -24 84z" />
<glyph unicode="&#xed;" horiz-adv-x="661" d="M35 158q0 166 76 489l75 397l412 41l-125 -647q-35 -152 -35 -205q0 -116 84 -120q-63 -154 -266 -154q-102 0 -161.5 65.5t-59.5 133.5zM182 1276l484 299q74 -29 73.5 -127t-79.5 -151t-183 -72l-252 -47z" />
<glyph unicode="&#xee;" horiz-adv-x="661" d="M35 158q0 166 76 489l75 397l412 41l-125 -647q-35 -152 -35 -205q0 -116 84 -120q-63 -154 -266 -154q-102 0 -161.5 65.5t-59.5 133.5zM139 1268l316 301l250 -301l-84 -94l-189 147l-242 -147z" />
<glyph unicode="&#xef;" horiz-adv-x="661" d="M35 158q0 166 76 489l75 397l412 41l-125 -647q-35 -152 -35 -205q0 -116 84 -120q-63 -154 -266 -154q-102 0 -161.5 65.5t-59.5 133.5zM78 1341q0 66 53 100t129 34t123 -34t47 -100t-51 -98.5t-128 -32.5t-125 32.5t-48 98.5zM485 1341q0 66 52.5 100t130.5 34 t123 -34t45 -100t-51.5 -98.5t-127 -32.5t-124 32.5t-48.5 98.5z" />
<glyph unicode="&#xf0;" horiz-adv-x="1206" d="M29 371q0 307 173 499.5t447 192.5q104 0 154 -23q12 55 12 88t-4 54l-211 -76q-31 31 -31 63q0 68 68 91l117 43q-41 31 -91.5 30.5t-76.5 -18.5q-8 12 -8 33q0 127 224 127q111 0 202 -82l221 82q27 -23 26 -76q0 -61 -102 -99l-59 -20q66 -125 65 -297 q0 -422 -168 -696q-92 -154 -226 -241t-300 -87q-432 0 -432 412zM414 272.5q0 -116.5 17.5 -154.5t58.5 -38q81 0 146.5 185t141.5 638q-47 39 -125 39t-122 -71.5t-80.5 -276.5t-36.5 -321.5z" />
<glyph unicode="&#xf1;" horiz-adv-x="1284" d="M-16 -41l213 1088l335 38l-32 -200q96 201 391 200q143 0 203.5 -60t60.5 -191.5t-48 -346t-48 -265t27.5 -79t68.5 -32.5q-20 -70 -91 -111t-163 -41q-248 0 -248 193q2 53 19 143l37 188q55 266 55 326q0 119 -70 119q-117 0 -178 -305l-121 -623zM342 1349.5 q0 61.5 52 97.5t138.5 36t236 -17.5t222 -17.5t107.5 35q39 -45 39 -111.5t-52.5 -105.5t-144.5 -39q-37 0 -96 6l-121 12q-61 6 -116.5 12.5t-86.5 6.5q-86 0 -137 -35q-41 59 -41 120.5z" />
<glyph unicode="&#xf2;" horiz-adv-x="1210" d="M31 383q0 301 171 502t476 200q221 0 333.5 -102t112.5 -317q0 -328 -174 -517.5t-469 -189.5q-451 0 -450 424zM371 1432q0 109 74 137l483 -299l-43 -98l-252 47q-172 31 -238 129q-25 37 -24 84zM422 205q0 -123 82 -123q47 0 76.5 22.5t61.5 96t64.5 249t35.5 251 t3 132t-16 93.5t-62 37t-77 -29t-55.5 -84t-44 -138t-44 -214t-24.5 -293z" />
<glyph unicode="&#xf3;" horiz-adv-x="1210" d="M31 383q0 301 171 502t476 200q221 0 333.5 -102t112.5 -317q0 -328 -174 -517.5t-469 -189.5q-451 0 -450 424zM422 205q0 -123 82 -123q47 0 76.5 22.5t61.5 96t64.5 249t35.5 251t3 132t-16 93.5t-62 37t-77 -29t-55.5 -84t-44 -138t-44 -214t-24.5 -293zM489 1276 l484 299q74 -29 73.5 -127t-79.5 -151t-183 -72l-252 -47z" />
<glyph unicode="&#xf4;" horiz-adv-x="1210" d="M31 383q0 301 171 502t476 200q221 0 333.5 -102t112.5 -317q0 -328 -174 -517.5t-469 -189.5q-451 0 -450 424zM353 1307l399 266l313 -268l-102 -125l-240 147l-303 -147zM422 205q0 -123 82 -123q47 0 76.5 22.5t61.5 96t64.5 249t35.5 251t3 132t-16 93.5t-62 37 t-77 -29t-55.5 -84t-44 -138t-44 -214t-24.5 -293z" />
<glyph unicode="&#xf5;" horiz-adv-x="1210" d="M31 383q0 301 171 502t476 200q221 0 333.5 -102t112.5 -317q0 -328 -174 -517.5t-469 -189.5q-451 0 -450 424zM328 1347.5q0 61.5 52 97.5t138.5 36t236 -17.5t222 -17.5t107.5 35q39 -45 39 -111.5t-52.5 -105.5t-144.5 -39q-37 0 -96 6l-121 12q-61 6 -116.5 12.5 t-86.5 6.5q-86 0 -137 -35q-41 59 -41 120.5zM422 205q0 -123 82 -123q47 0 76.5 22.5t61.5 96t64.5 249t35.5 251t3 132t-16 93.5t-62 37t-77 -29t-55.5 -84t-44 -138t-44 -214t-24.5 -293z" />
<glyph unicode="&#xf6;" horiz-adv-x="1210" d="M31 383q0 301 171 502t476 200q221 0 333.5 -102t112.5 -317q0 -328 -174 -517.5t-469 -189.5q-451 0 -450 424zM289 1341q0 64 58 98.5t144 34.5t137.5 -34.5t51.5 -98.5t-57.5 -98.5t-142.5 -34.5t-138 34.5t-53 98.5zM422 205q0 -123 82 -123q47 0 76.5 22.5t61.5 96 t64.5 249t35.5 251t3 132t-16 93.5t-62 37t-77 -29t-55.5 -84t-44 -138t-44 -214t-24.5 -293zM766 1341q0 64 58.5 98.5t144.5 34.5t137 -34.5t51 -98.5t-57.5 -98.5t-142.5 -34.5t-138 34.5t-53 98.5z" />
<glyph unicode="&#xf7;" horiz-adv-x="987" d="M20.5 471q-0.5 47 42.5 85t109 38h719q10 -41 10 -88t-41 -81t-127 -34h-704q-8 33 -8.5 80zM238 156q0 61 47 95t113.5 34t108.5 -34t42 -95t-46 -94t-112.5 -33t-109.5 33t-43 94zM375 827q0 61 47 95t113.5 34t108.5 -33.5t42 -95.5q0 -61 -46 -94t-112.5 -33 t-109.5 33t-43 94z" />
<glyph unicode="&#xf8;" horiz-adv-x="1210" d="M25 -23q-2 70 38 115l891 991l58 68q23 29 47 66q31 0 64.5 -32t33.5 -84.5t-45 -101.5l-887 -976q-61 -66 -104 -142q-47 0 -71.5 31t-24.5 65zM31 383q0 301 171 502t476 200q221 0 333.5 -102t112.5 -317q0 -328 -174 -517.5t-469 -189.5q-451 0 -450 424zM422 205 q0 -123 82 -123q47 0 76.5 22.5t61.5 96t64.5 249t35.5 251t3 132t-16 93.5t-62 37t-77 -29t-55.5 -84t-44 -138t-44 -214t-24.5 -293z" />
<glyph unicode="&#xf9;" horiz-adv-x="1300" d="M39 223q0 61 6 92l137 729l416 41l-149 -790q-8 -45 -9 -72q0 -119 72 -119q80 0 137 109q18 35 27 80l145 751l404 41l-152 -798q-6 -31 -6 -64t18.5 -68.5t77.5 -43.5q-12 -49 -55 -82q-90 -70 -187.5 -70t-155 35t-73.5 92q-98 -127 -342 -127q-127 0 -219 77t-92 187 zM438 1432q0 109 74 137l483 -299l-43 -98l-252 47q-172 31 -238 129q-25 37 -24 84z" />
<glyph unicode="&#xfa;" horiz-adv-x="1300" d="M39 223q0 61 6 92l137 729l416 41l-149 -790q-8 -45 -9 -72q0 -119 72 -119q80 0 137 109q18 35 27 80l145 751l404 41l-152 -798q-6 -31 -6 -64t18.5 -68.5t77.5 -43.5q-12 -49 -55 -82q-90 -70 -187.5 -70t-155 35t-73.5 92q-98 -127 -342 -127q-127 0 -219 77t-92 187 zM583 1276l484 299q74 -29 73.5 -127t-79.5 -151t-183 -72l-252 -47z" />
<glyph unicode="&#xfb;" horiz-adv-x="1300" d="M39 223q0 61 6 92l137 729l416 41l-149 -790q-8 -45 -9 -72q0 -119 72 -119q80 0 137 109q18 35 27 80l145 751l404 41l-152 -798q-6 -31 -6 -64t18.5 -68.5t77.5 -43.5q-12 -49 -55 -82q-90 -70 -187.5 -70t-155 35t-73.5 92q-98 -127 -342 -127q-127 0 -219 77t-92 187 zM390 1309l399 266l313 -268l-102 -125l-240 147l-303 -147z" />
<glyph unicode="&#xfc;" horiz-adv-x="1300" d="M39 223q0 61 6 92l137 729l416 41l-149 -790q-8 -45 -9 -72q0 -119 72 -119q80 0 137 109q18 35 27 80l145 751l404 41l-152 -798q-6 -31 -6 -64t18.5 -68.5t77.5 -43.5q-12 -49 -55 -82q-90 -70 -187.5 -70t-155 35t-73.5 92q-98 -127 -342 -127q-127 0 -219 77t-92 187 zM336 1340.5q0 64.5 58 99.5t144 35t137.5 -35t51.5 -99.5t-57.5 -99.5t-142.5 -35t-138 35t-53 99.5zM813 1340.5q0 64.5 58.5 99.5t144.5 35t137 -35t51 -99.5t-57.5 -99.5t-142.5 -35t-138 35t-53 99.5z" />
<glyph unicode="&#xfd;" horiz-adv-x="1265" d="M-39 -164q0 84 63.5 132t155.5 48t144.5 -29.5t70.5 -58.5q-47 -41 -47 -108q0 -90 82 -90q135 0 213 311q23 92 43 190q-106 -111 -301 -110q-244 0 -295 178q-16 53 -16 112.5t12 120.5l96 512l416 41l-113 -596q-4 -27 -10 -55t-6 -58q0 -97 103 -97q44 0 82 53 t57 145l112 567l404 41l-154 -804q-76 -393 -231 -549q-80 -80 -183.5 -112t-236.5 -32q-215 0 -338 68t-123 180zM579 1276l484 299q74 -29 73.5 -127t-79.5 -151t-183 -72l-252 -47z" />
<glyph unicode="&#xfe;" horiz-adv-x="1265" d="M-84 -410l354 1844l416 41l-63 -314q-20 -90 -52 -162q49 55 144 78q29 8 63 8q190 0 295 -115.5t105 -338.5q0 -291 -166 -473q-178 -199 -502 -199q-55 0 -119 6l-59 -334zM428 117q43 -37 96.5 -37t84 20.5t53.5 61.5q61 111 110 448q14 96 14 192.5t-21.5 127.5 t-62.5 31q-125 0 -165 -244z" />
<glyph unicode="&#xff;" horiz-adv-x="1265" d="M-39 -164q0 84 63.5 132t155.5 48t144.5 -29.5t70.5 -58.5q-47 -41 -47 -108q0 -90 82 -90q135 0 213 311q23 92 43 190q-106 -111 -301 -110q-244 0 -295 178q-16 53 -16 112.5t12 120.5l96 512l416 41l-113 -596q-4 -27 -10 -55t-6 -58q0 -97 103 -97q44 0 82 53 t57 145l112 567l404 41l-154 -804q-76 -393 -231 -549q-80 -80 -183.5 -112t-236.5 -32q-215 0 -338 68t-123 180zM332 1341q0 64 58 98.5t144 34.5t137.5 -34.5t51.5 -98.5t-57.5 -98.5t-142.5 -34.5t-138 34.5t-53 98.5zM809 1341q0 64 58.5 98.5t144.5 34.5t137 -34.5 t51 -98.5t-57.5 -98.5t-142.5 -34.5t-138 34.5t-53 98.5z" />
<glyph unicode="&#x152;" horiz-adv-x="1843" d="M61 508q0 186 59.5 348t163 280.5t244 187.5t282.5 69t243 -41h819v-19q0 -102 -62.5 -169.5t-182.5 -67.5t-234 55l-50 -358h377v-15q0 -100 -54 -157.5t-144.5 -57.5t-143.5 19.5t-63 27.5l-4 -22q-23 -139 -23 -242q0 -51 39 -87t92 -36q150 0 238 92q43 -53 43 -131 q0 -225 -369 -225q-104 0 -195 43t-108 104q-70 -72 -172 -109.5t-272 -37.5q-256 0 -389.5 142.5t-133.5 406.5zM489 415.5q0 -174.5 23 -236.5t84 -62t124.5 72.5t113.5 191.5q109 262 108 582q0 166 -17.5 212t-39 59t-58 13t-76.5 -34.5t-79 -96t-72 -143.5t-58 -177 q-53 -206 -53 -380.5z" />
<glyph unicode="&#x153;" horiz-adv-x="1759" d="M33 395q0 311 177 500.5t460 189.5q100 0 168.5 -16t130.5 -57q104 41 192 57t230.5 16t238.5 -64.5t96 -178.5q0 -360 -622 -361q-8 -70 -8 -98q0 -166 153 -166q137 0 240 78q31 25 47 51q51 -37 51 -108q0 -127 -130 -203t-330.5 -76t-309.5 84q-141 -84 -389 -84 q-193 0 -294 112.5t-101 323.5zM426 271.5q0 -111.5 16.5 -151.5t57.5 -40t86 64.5t82 166.5q80 231 80 482q0 96 -14.5 134t-56.5 38t-88 -62.5t-82 -163t-58.5 -228.5t-22.5 -239.5zM1118 569q141 0 227.5 86t86.5 228q0 98 -82 98q-74 0 -135.5 -106.5t-96.5 -305.5z" />
<glyph unicode="&#x178;" horiz-adv-x="1220" d="M80 1276q92 113 266 113q172 0 251 -122t79 -411v-147q123 360 247 518t279 157q61 0 102.5 -31.5t61.5 -78.5q-158 -70 -309 -270q-152 -201 -250 -482l-121 -522h-457l119 602q-59 555 -268 674zM365 1565q0 64 58 98.5t144 34.5t137.5 -34.5t51.5 -98.5t-57.5 -98.5 t-142.5 -34.5t-138 34.5t-53 98.5zM842 1565q0 64 58.5 98.5t144.5 34.5t137 -34.5t51 -98.5t-57.5 -98.5t-142.5 -34.5t-138 34.5t-53 98.5z" />
<glyph unicode="&#x2c6;" horiz-adv-x="831" d="M-61 1311l399 266l313 -268l-102 -125l-240 147l-303 -147z" />
<glyph unicode="&#x2dc;" horiz-adv-x="942" d="M-45 1355.5q0 61.5 52 97.5t138.5 36t236 -17.5t222 -17.5t107.5 35q39 -45 39 -111.5t-52.5 -105.5t-144.5 -39q-37 0 -96 6l-121 12q-61 6 -116.5 12.5t-86.5 6.5q-86 0 -137 -35q-41 59 -41 120.5z" />
<glyph unicode="&#x2000;" horiz-adv-x="882" />
<glyph unicode="&#x2001;" horiz-adv-x="1765" />
<glyph unicode="&#x2002;" horiz-adv-x="882" />
<glyph unicode="&#x2003;" horiz-adv-x="1765" />
<glyph unicode="&#x2004;" horiz-adv-x="588" />
<glyph unicode="&#x2005;" horiz-adv-x="441" />
<glyph unicode="&#x2006;" horiz-adv-x="294" />
<glyph unicode="&#x2007;" horiz-adv-x="294" />
<glyph unicode="&#x2008;" horiz-adv-x="220" />
<glyph unicode="&#x2009;" horiz-adv-x="353" />
<glyph unicode="&#x200a;" horiz-adv-x="98" />
<glyph unicode="&#x2010;" horiz-adv-x="802" d="M45 469q0 49 24.5 89t73.5 46h404q68 0 88 41q61 -33 61 -137q0 -41 -31.5 -81t-78.5 -44h-375q-43 0 -63.5 -13t-36.5 -38q-66 47 -66 137z" />
<glyph unicode="&#x2011;" horiz-adv-x="802" d="M45 469q0 49 24.5 89t73.5 46h404q68 0 88 41q61 -33 61 -137q0 -41 -31.5 -81t-78.5 -44h-375q-43 0 -63.5 -13t-36.5 -38q-66 47 -66 137z" />
<glyph unicode="&#x2012;" horiz-adv-x="802" d="M45 469q0 49 24.5 89t73.5 46h404q68 0 88 41q61 -33 61 -137q0 -41 -31.5 -81t-78.5 -44h-375q-43 0 -63.5 -13t-36.5 -38q-66 47 -66 137z" />
<glyph unicode="&#x2013;" horiz-adv-x="1204" d="M59 446q0 68 43 110t109 42h862q29 -106 -33 -168q-43 -41 -127 -41h-845q-9 26 -9 57z" />
<glyph unicode="&#x2014;" horiz-adv-x="2228" d="M59 446q0 68 43 110t109 42h1886q10 -35 10 -59q0 -61 -42 -105.5t-128 -44.5h-1869q-9 26 -9 57z" />
<glyph unicode="&#x2018;" horiz-adv-x="509" d="M141 1122q0 161 117 267t287 106q33 0 88 -12q-158 -170 -158 -383q0 -66 23 -127q-25 -16 -74 -27.5t-86 -11.5q-92 0 -144.5 50t-52.5 138z" />
<glyph unicode="&#x2019;" horiz-adv-x="540" d="M100 948q158 170 158 383q0 66 -22 127q25 16 73.5 27.5t85.5 11.5q92 0 144.5 -51t52.5 -138q0 -160 -117 -266t-287 -106q-33 0 -88 12z" />
<glyph unicode="&#x201a;" horiz-adv-x="499" d="M-147 -266q158 170 157 383q0 66 -22 127q25 16 74 27.5t85 11.5q92 0 144.5 -49.5t52.5 -139.5q0 -74 -35 -145.5t-88 -120.5q-115 -106 -280 -107q-33 1 -88 13z" />
<glyph unicode="&#x201c;" horiz-adv-x="999" d="M143 1125q0 158 115 266q119 106 289 106q33 0 88 -12q-158 -170 -158 -383q0 -66 23 -127q-25 -16 -74 -27.5t-86 -11.5q-92 0 -144.5 51t-52.5 138zM631 1124q0 159 114 267q119 106 289 106q33 0 88 -12q-158 -170 -157 -383q0 -66 22 -127q-25 -16 -74 -27.5 t-86 -11.5q-92 0 -144 51t-52 137z" />
<glyph unicode="&#x201d;" horiz-adv-x="1028" d="M100 948q158 170 158 383q0 66 -22 127q25 16 73.5 27.5t85.5 11.5q92 0 144.5 -51t52.5 -138q0 -162 -116 -267t-288 -105q-33 0 -88 12zM588 948q158 170 157 383q0 66 -22 127q25 16 74 27.5t86 11.5q92 0 144 -51t52 -137q0 -162 -116.5 -267.5t-286.5 -105.5 q-33 0 -88 12z" />
<glyph unicode="&#x201e;" horiz-adv-x="989" d="M-147 -266q158 170 157 383q0 66 -22 127q25 16 74 27.5t85 11.5q92 0 144.5 -51.5t52.5 -137.5q0 -162 -117 -267t-286 -106q-33 1 -88 13zM340 -266q158 170 158 383q0 66 -23 127q25 16 74 27.5t86 11.5q92 0 144 -51.5t52 -137.5q0 -161 -114 -266 q-119 -106 -289 -107q-33 1 -88 13z" />
<glyph unicode="&#x2022;" horiz-adv-x="686" d="M59 526.5q0 102.5 77 159.5t189.5 57t181 -55t68.5 -160q0 -104 -75.5 -158.5t-187 -54.5t-182.5 54.5t-71 157z" />
<glyph unicode="&#x2026;" horiz-adv-x="1447" d="M-27 121q0 78 60.5 121t146.5 43t138.5 -43t52.5 -121t-58.5 -120t-144.5 -42t-140.5 42t-54.5 120zM434 121q0 78 60.5 121t146.5 43t138 -43t52 -121t-58 -120t-144 -42t-140.5 42t-54.5 120zM895 121q0 78 60.5 121t146.5 43t138 -43t52 -121t-58 -120t-144 -42 t-140.5 42t-54.5 120z" />
<glyph unicode="&#x202f;" horiz-adv-x="353" />
<glyph unicode="&#x2039;" horiz-adv-x="636" d="M49 649l342 395h246l-252 -395l98 -391h-239z" />
<glyph unicode="&#x203a;" horiz-adv-x="634" d="M-2 258l244 391l-105 395h246l195 -395l-340 -391h-240z" />
<glyph unicode="&#x205f;" horiz-adv-x="441" />
<glyph unicode="&#x20ac;" horiz-adv-x="1359" d="M23 492.5q0 37.5 37.5 63.5t99.5 26h45q4 61 16 118h-135q-10 27 -10 65t38 63.5t99 25.5h47q88 250 279 394t444 145q147 0 255.5 -59.5t109.5 -141.5q0 -190 -238 -191q-66 0 -109 27q33 61 33 115.5t-26.5 85.5t-69.5 35q-92 0 -177 -118t-130 -292h330q12 -31 12 -59 q0 -94 -156 -95h-217q-10 -72 -10 -118h317q12 -31 13 -60q0 -94 -156 -94h-158q59 -176 271 -176q169 0 294 154q41 -33 41 -120t-39.5 -142.5t-111.5 -96.5q-152 -88 -376 -88t-348 120t-136 349h-168q-10 27 -10 64.5z" />
<glyph unicode="&#x2122;" horiz-adv-x="1646" d="M199 1262.5q0 70.5 75 103.5q29 12 70 12q52 0 154 -16t147 -16t74 18q12 -12 25.5 -31.5t13.5 -64.5t-41 -85t-107 -40t-135 20.5t-145 20.5t-90 -29q-41 37 -41 107.5zM264 733q0 100 45.5 226.5t73.5 187.5l47 98l105 -31q-49 -246 -49.5 -350t55.5 -194 q-78 -78 -158 -78q-119 0 -119 141zM672 608l174 744h219l74 -441q106 223 192 441h203q-23 -438 -23 -455v-25q0 -129 37 -188q11 -19 27 -37q-23 -55 -128.5 -55t-127.5 108q-6 29 -6 125t22 289l-112 -254q-53 -123 -99 -252h-137l-86 506l-106 -506h-123z" />
<glyph unicode="&#xe000;" horiz-adv-x="1085" d="M0 0v1085h1085v-1085h-1085z" />
<glyph unicode="&#xfb01;" horiz-adv-x="1390" d="M29 -41q6 31 20 94l98 471l82 428h-145l18 92h148l43 142q41 160 174 224.5t401 64.5q367 0 465 -115q29 -35 29 -94q0 -123 -246 -123q-74 0 -153 45q-20 10 -29 22q23 39 22 80q0 41 -27.5 65.5t-63.5 24.5q-70 0 -107 -34q-53 -45 -76 -154l-33 -148h666l-125 -638 q-29 -158 -29 -204t43 -73q18 -12 43 -16q-27 -98 -155 -138q-49 -16 -112 -16q-108 0 -165 65.5t-57 131.5q0 156 71 491l60 305h-256l-187 -952z" />
<glyph unicode="&#xfb02;" horiz-adv-x="1388" d="M31 -39q2 14 15 71.5t36 172.5l61 299q37 182 86 448h-145l18 92h148l43 142q70 229 366 274q254 38 445 -26l295 41l-223 -1156q-12 -63 -12.5 -100t19 -71.5t62.5 -34.5q-25 -100 -153 -140q-47 -14 -108 -14q-106 0 -169 72q-55 59 -55 127q0 154 71 489l50 264 q23 109 37 183l20 118q8 43 12 68t7.5 37t5.5 22q-33 41 -99.5 41t-97.5 -28q-61 -55 -84 -160l-33 -148h144l-21 -92h-139l-187 -950z" />
</font>
</defs>
</svg>
